<?xml version="1.0" standalone="no"?>
<!DOCTYPE svg PUBLIC "-//W3C//DTD SVG 1.1//EN" "http://www.w3.org/Graphics/SVG/1.1/DTD/svg11.dtd" >
<svg xmlns="http://www.w3.org/2000/svg" xmlns:xlink="http://www.w3.org/1999/xlink" version="1.1">
<metadata>
Created by FontForge 20161003 at Thu May 24 14:43:05 2018
 By www-data
Digitized data copyright The Monotype Corporation 1991-2001. All rights reserved.
</metadata>
<defs>
<font id="GillSans" horiz-adv-x="1024" >
  <font-face 
    font-family="Gill Sans"
    font-weight="400"
    font-stretch="normal"
    units-per-em="2048"
    panose-1="2 11 5 2 2 1 4 2 2 3"
    ascent="1638"
    descent="-410"
    x-height="920"
    cap-height="1397"
    bbox="-1163 -473 2191 1896"
    underline-thickness="102"
    underline-position="-409"
    unicode-range="U+0008-FB02"
  />
<missing-glyph horiz-adv-x="748" 
d="M68 0v1365h544v-1365h-544zM136 68h408v1229h-408v-1229z" />
    <glyph glyph-name="fi" unicode="fi" 
d="M346 922h205v-156h-205v-766h-182v766h-137v156h137v30q0 223 101 343t288 120q153 0 242 -78t92 -215h-172q-27 73 -66 104t-102 31q-203 0 -203 -301q0 -16 2 -34zM715 922h172v-922h-172v922z" />
    <glyph glyph-name="fl" unicode="fl" 
d="M338 922h209v-156h-209v-766h-178v766h-142v156h142v45q0 150 34 237t113 149t191 62q64 0 123 -18v-166q-52 14 -82 14q-110 0 -155.5 -63.5t-45.5 -218.5v-41zM713 1397h182v-1397h-182v1397z" />
    <glyph glyph-name=".notdef" horiz-adv-x="748" 
d="M68 0v1365h544v-1365h-544zM136 68h408v1229h-408v-1229z" />
    <glyph glyph-name=".null" horiz-adv-x="0" 
 />
    <glyph glyph-name="nonmarkingreturn" unicode="&#x9;" horiz-adv-x="569" 
 />
    <glyph glyph-name="nonmarkingreturn" unicode="&#xd;" horiz-adv-x="569" 
 />
    <glyph glyph-name="nonmarkingreturn" unicode="&#xa;" horiz-adv-x="569" 
 />
    <glyph glyph-name="NULL" horiz-adv-x="0" 
 />
    <glyph glyph-name="NULL" horiz-adv-x="0" 
 />
    <glyph glyph-name="NULL" horiz-adv-x="0" 
 />
    <glyph glyph-name="space" unicode=" " horiz-adv-x="569" 
 />
    <glyph glyph-name="exclam" unicode="!" horiz-adv-x="555" 
d="M401 104q0 -50 -35.5 -85t-86.5 -35q-54 0 -90.5 34.5t-36.5 85.5q0 54 36 90.5t88 36.5q54 0 89.5 -36.5t35.5 -90.5zM256 436l-16 51q-21 60 -48.5 273t-27.5 362q0 293 115 293q112 0 112 -285q0 -237 -45 -485l-27 -153l-16 -58q-9 -31 -27 -31q-11 0 -20 33z" />
    <glyph glyph-name="quotedbl" unicode="&#x22;" horiz-adv-x="725" 
d="M254 946h-111l-49 281v239h205v-239zM584 946h-109l-49 281v239h205v-239z" />
    <glyph glyph-name="numbersign" unicode="#" horiz-adv-x="1196" 
d="M4 871v123h326l86 403h121l-86 -403h421l84 403h123l-86 -403h199v-123h-223l-76 -371h299v-123h-324l-84 -399h-122l86 399h-424l-84 -399h-123l84 399h-197v123h223l78 371h-301zM848 871h-422l-78 -371h424z" />
    <glyph glyph-name="dollar" unicode="$" horiz-adv-x="1110" 
d="M657 1415v-74q199 -30 306 -120v-230q-125 128 -306 170v-405q182 -54 276.5 -157.5t94.5 -238.5t-93 -241q-46 -53 -107.5 -86t-170.5 -51v-222h-168v222q-170 16 -385 143v252q96 -87 185.5 -138t199.5 -73v440q-168 58 -236.5 108t-107.5 120.5t-39 142.5
q0 141 105 240.5t278 123.5v74h168zM489 809v352q-81 -11 -132.5 -58.5t-51.5 -111.5q0 -58 35 -96t124 -75q15 -6 25 -11zM688 522l-31 17v-371q172 40 172 176q0 59 -30.5 97.5t-110.5 80.5z" />
    <glyph glyph-name="percent" unicode="%" horiz-adv-x="1384" 
d="M1071 1417h153l-919 -1433h-154zM1021 608q128 0 220 -91.5t92 -219.5t-91.5 -217.5t-220.5 -89.5q-130 0 -221.5 89.5t-91.5 217.5q0 129 92 220t221 91zM1019 457q-66 0 -112.5 -47t-46.5 -113q0 -67 46.5 -114.5t112.5 -47.5q68 0 115 47t47 115q0 67 -47 113.5
t-115 46.5zM362 1413q129 0 220 -92t91 -221q0 -128 -91.5 -220t-219.5 -92t-219.5 92t-91.5 220q0 129 91 221t220 92zM360 1262q-67 0 -114.5 -47.5t-47.5 -114.5q0 -66 48 -113t114 -47q67 0 114.5 47t47.5 113q0 68 -47 115t-115 47z" />
    <glyph glyph-name="ampersand" unicode="&#x26;" horiz-adv-x="1280" 
d="M1014 0l-162 190q-21 -21 -72 -61l-2 -2q-71 -59 -175.5 -101t-196.5 -42q-145 0 -246 94.5t-101 230.5q0 98 49.5 177t161.5 161l3 3q66 49 114 75q-158 169 -158 324q0 143 97 232t252 89q152 0 250 -87t98 -222q0 -183 -244 -356l-14 -11l196 -225q86 94 150 225h200
q-72 -186 -227 -366l283 -328h-256zM684 289l45 41l-227 262l-88 -62q-156 -105 -156 -213q0 -59 51 -101t123 -42q56 0 126.5 32t125.5 83zM555 829l76 54q106 75 106 174q0 61 -44.5 102t-112.5 41q-66 0 -109 -38t-43 -95q0 -55 34 -119.5t93 -118.5z" />
    <glyph glyph-name="quotesingle" unicode="'" horiz-adv-x="385" 
d="M248 946h-113l-45 275v245h205v-245z" />
    <glyph glyph-name="parenleft" unicode="(" horiz-adv-x="662" 
d="M524 1415h113q-125 -186 -181.5 -318t-85 -302.5t-28.5 -329.5q0 -546 295 -934h-113l-30 37q-113 136 -167.5 223t-108.5 226q-87 222 -87 454q0 236 87 455.5t306 488.5z" />
    <glyph glyph-name="parenright" unicode=")" horiz-adv-x="662" 
d="M137 -469h-112q130 196 185 332.5t82 300t27 313.5q0 174 -31.5 337t-94 309.5t-168.5 291.5h112l31 -37q112 -133 166.5 -220t108.5 -227q87 -222 87 -458q0 -226 -79 -435q-39 -104 -98.5 -207t-215.5 -300z" />
    <glyph glyph-name="asterisk" unicode="*" horiz-adv-x="854" 
d="M444 1102h5q21 0 36 -21l172 164q54 51 95 51q27 0 46 -20.5t19 -50.5q0 -68 -78 -88l-22 -7l-219 -79q4 -13 4 -25t-4 -22l231 -87l45 -22q17 -10 30 -30.5t13 -37.5q0 -23 -19.5 -46t-45.5 -23q-50 0 -117 67l-150 150q-21 -21 -41 -21l41 -211q9 -39 9 -92
q0 -88 -68 -88q-70 0 -70 96q0 27 6 52l52 243q-19 2 -39 21l-160 -148q-75 -67 -113 -67q-27 0 -47 20t-20 47q0 66 123 107l202 70q-4 16 -4 24l4 23l-231 86q-90 32 -90 86q0 29 21 52t49 23q23 0 65 -32l27 -21l174 -164q17 19 39 21l-39 205l-10 43q-5 23 -5 45
q0 92 70 92q68 0 68 -82q0 -29 -13 -94z" />
    <glyph glyph-name="plus" unicode="+" horiz-adv-x="1196" 
d="M513 237v402h-399v168h399v399h170v-399h399v-168h-399v-402h-170z" />
    <glyph glyph-name="comma" unicode="," horiz-adv-x="449" 
d="M100 -242v37q45 43 63 86.5t21 118.5q-106 31 -106 131q0 54 36.5 93.5t86.5 39.5q61 0 100 -54t39 -138q0 -111 -64 -195t-176 -119z" />
    <glyph glyph-name="hyphen" unicode="-" horiz-adv-x="662" 
d="M82 551h498v-195h-498v195z" />
    <glyph glyph-name="period" unicode="." horiz-adv-x="449" 
d="M223 223q51 0 87 -35t36 -86q0 -50 -35.5 -84t-87.5 -34q-51 0 -86 34t-35 84q0 51 35 86t86 35z" />
    <glyph glyph-name="slash" unicode="/" horiz-adv-x="575" 
d="M5 -18l402 1434h144l-401 -1434h-145z" />
    <glyph glyph-name="zero" unicode="0" 
d="M520 1415q192 0 317.5 -201.5t125.5 -511.5q0 -318 -125.5 -517t-325.5 -199q-203 0 -326 195t-123 517q0 318 127 517.5t330 199.5zM522 1225h-10q-115 0 -182.5 -141.5t-67.5 -383.5q0 -248 66 -389t182 -141t183 141t67 383q0 243 -64.5 387t-173.5 144z" />
    <glyph glyph-name="one" unicode="1" 
d="M414 1397h200v-1397h-200v1397z" />
    <glyph glyph-name="two" unicode="2" 
d="M422 193h532v-193h-884v14l84 99q197 244 313.5 414t152 257t35.5 172q0 118 -67 189.5t-178 71.5q-84 0 -165.5 -49.5t-146.5 -139.5v254q163 133 336 133q183 0 301.5 -122t118.5 -310q0 -84 -29.5 -179.5t-104.5 -220t-255 -339.5z" />
    <glyph glyph-name="three" unicode="3" 
d="M369 813h12q131 0 199.5 54t68.5 157q0 93 -66.5 151t-174.5 58q-109 0 -242 -68v191q122 61 266 61q193 0 304.5 -101t111.5 -276q0 -106 -43 -178.5t-137 -124.5q82 -32 120 -78.5t59 -112.5t21 -140q0 -183 -122 -302.5t-308 -119.5q-159 0 -307 77v218
q158 -99 307 -99q101 0 162.5 60t61.5 159q0 83 -51 145q-30 35 -66.5 51.5t-157.5 31.5l-18 2v184z" />
    <glyph glyph-name="four" unicode="4" 
d="M727 1415h82v-784h156v-170h-156v-461h-195v461h-591v86zM614 631v405l-323 -405h323z" />
    <glyph glyph-name="five" unicode="5" 
d="M207 1397h620v-178h-438v-353q21 2 43 2q203 0 334 -123.5t131 -314.5q0 -197 -129.5 -320.5t-335.5 -123.5q-170 0 -330 82v206q151 -98 295 -98q126 0 211.5 73.5t85.5 180.5q0 111 -93 185.5t-232 74.5q-119 0 -162 -20v727z" />
    <glyph glyph-name="six" unicode="6" 
d="M629 1401l20 14l121 -153q-160 -103 -265.5 -225t-162.5 -287q111 57 221 57q165 0 278 -117t113 -287q0 -175 -123 -297t-299 -122q-197 0 -318.5 138.5t-121.5 362.5q0 168 62.5 334.5t180 312t294.5 269.5zM299 543q-8 -47 -8 -105q0 -118 68.5 -194t175.5 -76
q96 0 158.5 65t62.5 164q0 101 -66.5 163.5t-175.5 62.5q-56 0 -101.5 -17t-113.5 -63z" />
    <glyph glyph-name="seven" unicode="7" 
d="M100 1397h904l-633 -1413l-178 75l512 1147h-605v191z" />
    <glyph glyph-name="eight" unicode="8" 
d="M98 1022q0 164 123 278.5t301 114.5q175 0 295.5 -113.5t120.5 -279.5q0 -187 -174 -309q194 -112 194 -330q0 -173 -126 -286t-318 -113q-190 0 -319 115.5t-129 285.5q0 213 198 328q-89 72 -127.5 143.5t-38.5 165.5zM739 1016q0 91 -62.5 150t-158.5 59
q-97 0 -159 -58t-62 -149q0 -87 65.5 -149t157.5 -62q91 0 155 61.5t64 147.5zM756 375v20q0 96 -68.5 156.5t-177.5 60.5q-107 0 -174.5 -61t-67.5 -158t69 -158t179 -61q105 0 172.5 56t67.5 145z" />
    <glyph glyph-name="nine" unicode="9" 
d="M383 -16l-123 145q155 98 271 237.5t155 286.5q-95 -59 -223 -59q-160 0 -274.5 119t-114.5 286q0 174 122 295t298 121q198 0 324 -143t126 -367q0 -254 -158 -513.5t-403 -407.5zM725 852q12 80 12 104q0 121 -67.5 198t-173.5 77q-97 0 -160.5 -65.5t-63.5 -164.5
q0 -91 69 -157t165 -66q112 0 219 74z" />
    <glyph glyph-name="colon" unicode=":" horiz-adv-x="449" 
d="M215 227q51 0 87 -36t36 -87q0 -50 -36 -85t-87 -35q-49 0 -85 35t-36 85q0 51 35 87t86 36zM231 938q51 0 87 -36t36 -87q0 -50 -36 -85.5t-87 -35.5q-49 0 -84.5 35.5t-35.5 85.5q0 51 35 87t85 36z" />
    <glyph glyph-name="semicolon" unicode=";" horiz-adv-x="469" 
d="M207 -10l2 10q-107 31 -107 131q0 54 36.5 93.5t86.5 39.5q60 0 100 -55t40 -137q0 -111 -64 -195t-176 -119v37q43 41 61 84t21 111zM244 938q51 0 87 -36t36 -87q0 -50 -36 -85.5t-85 -35.5q-51 0 -87 35.5t-36 85.5q0 51 35.5 87t85.5 36z" />
    <glyph glyph-name="less" unicode="&#x3c;" horiz-adv-x="1196" 
d="M112 641v168l971 410v-179l-770 -316l770 -319v-179z" />
    <glyph glyph-name="equal" unicode="=" horiz-adv-x="1196" 
d="M1082 862h-968v168h968v-168zM1082 417h-968v168h968v-168z" />
    <glyph glyph-name="greater" unicode="&#x3e;" horiz-adv-x="1196" 
d="M1083 641l-971 -415v179l769 319l-769 316v179l971 -410v-168z" />
    <glyph glyph-name="question" unicode="?" horiz-adv-x="682" 
d="M133 1198l131 219q162 -6 246 -90.5t84 -208.5q0 -80 -32.5 -169.5t-145.5 -262.5q-131 -202 -131 -287q0 -13 6 -41q-68 31 -97.5 74.5t-29.5 116.5q0 70 23.5 125t113.5 196q86 136 86 226q0 62 -38.5 98.5t-102.5 36.5q-48 0 -113 -33zM438 104q0 -51 -36 -85.5
t-89 -34.5q-50 0 -84 34t-34 84q0 52 35 88.5t85 36.5q52 0 87.5 -35.5t35.5 -87.5z" />
    <glyph glyph-name="at" unicode="@" horiz-adv-x="2068" 
d="M1012 1083q192 0 301 -184l35 156h180l-160 -742q-14 -64 -14 -84q0 -28 20 -47.5t49 -19.5q65 0 166.5 83.5t160 209.5t58.5 262q0 270 -204 450.5t-510 180.5q-361 0 -597.5 -244.5t-236.5 -618.5q0 -364 227.5 -565t638.5 -201q242 0 422 82q68 32 141 81.5t136 135.5
h180q-59 -120 -198 -230.5t-303.5 -162t-381.5 -51.5q-471 0 -741.5 238.5t-270.5 653.5q0 287 133.5 535.5t353 370t507.5 121.5q372 0 614 -221t242 -561q0 -177 -86 -343.5t-227 -268t-291 -101.5q-101 0 -143.5 36.5t-51.5 129.5q-66 -78 -146 -121t-159 -43
q-155 0 -258.5 128t-103.5 318q0 157 74 306t195 240t249 91zM678 430q0 -124 61 -204.5t154 -80.5q139 0 250.5 155t111.5 349q0 130 -63.5 209.5t-167.5 79.5q-135 0 -240.5 -155.5t-105.5 -352.5z" />
    <glyph glyph-name="A" unicode="A" horiz-adv-x="1366" 
d="M600 1405h141l625 -1405h-205l-186 414h-594l-176 -414h-205zM893 592l-225 506l-209 -506h434z" />
    <glyph glyph-name="B" unicode="B" horiz-adv-x="1153" 
d="M627 0h-473v1397h366q173 0 270 -46.5t148 -128t51 -188.5q0 -206 -213 -295q153 -29 243.5 -126t90.5 -232q0 -107 -55 -191t-161.5 -137t-266.5 -53zM526 1219h-172v-420h133q160 0 227.5 61t67.5 158q0 201 -256 201zM541 621h-187v-443h197q164 0 222.5 25.5t94 79.5
t35.5 116q0 64 -37.5 117t-106.5 79t-218 26z" />
    <glyph glyph-name="C" unicode="C" horiz-adv-x="1450" 
d="M1358 324v-220q-220 -120 -508 -120q-234 0 -397 94t-258 259t-95 357q0 305 217.5 513t536.5 208q220 0 489 -115v-215q-245 140 -479 140q-240 0 -398.5 -151.5t-158.5 -379.5q0 -230 156 -378t399 -148q254 0 496 156z" />
    <glyph glyph-name="D" unicode="D" horiz-adv-x="1536" 
d="M156 2v1395h471q285 0 451 -85.5t264 -251.5t98 -362q0 -140 -54 -268t-154 -225q-102 -100 -237 -151q-79 -31 -145 -41.5t-252 -10.5h-442zM606 1219h-250v-1039h256q150 0 233 20.5t138.5 52t101.5 77.5q148 150 148 379q0 225 -152 367q-56 53 -128.5 87t-137.5 45
t-209 11z" />
    <glyph glyph-name="E" unicode="E" 
d="M154 1397h792v-178h-592v-426h572v-179h-572v-434h611v-178h-811v1395z" />
    <glyph glyph-name="F" unicode="F" horiz-adv-x="961" 
d="M156 1397h745v-178h-545v-390h545v-178h-545v-651h-200v1397z" />
    <glyph glyph-name="G" unicode="G" horiz-adv-x="1516" 
d="M909 688h469v-592q-258 -112 -512 -112q-347 0 -554.5 202.5t-207.5 499.5q0 313 215 521t539 208q118 0 224 -25.5t268 -93.5v-204q-250 145 -496 145q-229 0 -386 -156t-157 -383q0 -238 157 -389t404 -151q120 0 287 55l19 6v291h-269v178z" />
    <glyph glyph-name="H" unicode="H" horiz-adv-x="1493" 
d="M1139 1397h200v-1397h-200v608h-785v-608h-200v1397h200v-604h785v604z" />
    <glyph glyph-name="I" unicode="I" horiz-adv-x="512" 
d="M156 1397h200v-1397h-200v1397z" />
    <glyph glyph-name="J" unicode="J" horiz-adv-x="512" 
d="M156 1397h200v-1379q0 -193 -39.5 -285.5t-127.5 -148t-212 -55.5q-19 0 -65 6l-37 186h51q86 0 131.5 21t72 74t26.5 225v1356z" />
    <glyph glyph-name="K" unicode="K" horiz-adv-x="1343" 
d="M944 1397h250l-606 -662l755 -735h-274l-713 690v-690h-200v1397h200v-639z" />
    <glyph glyph-name="L" unicode="L" horiz-adv-x="1004" 
d="M154 1397h200v-1215h629v-182h-829v1397z" />
    <glyph glyph-name="M" unicode="M" horiz-adv-x="1599" 
d="M1266 1397h186v-1397h-201v1087l-430 -540h-37l-434 540v-1087h-200v1397h188l465 -574z" />
    <glyph glyph-name="N" unicode="N" horiz-adv-x="1599" 
d="M1264 1397h190v-1397h-172l-934 1075v-1075h-188v1397h162l942 -1084v1084z" />
    <glyph glyph-name="O" unicode="O" horiz-adv-x="1686" 
d="M840 1417q324 0 539.5 -205t215.5 -514t-217.5 -511.5t-548.5 -202.5q-316 0 -526.5 202.5t-210.5 507.5q0 313 212 518t536 205zM848 1227q-240 0 -394.5 -150t-154.5 -383q0 -226 155 -376t388 -150q234 0 390.5 153t156.5 381q0 222 -156.5 373.5t-384.5 151.5z" />
    <glyph glyph-name="P" unicode="P" horiz-adv-x="1044" 
d="M143 0v1399h443q200 0 319 -108t119 -290q0 -122 -61 -216t-167 -136.5t-304 -42.5h-148v-606h-201zM551 1221h-207v-437h219q122 0 188 57.5t66 164.5q0 215 -266 215z" />
    <glyph glyph-name="Q" unicode="Q" horiz-adv-x="1686" 
d="M1563 -88l-201 -195q-94 5 -196.5 33.5t-208 78.5t-281.5 171q-255 46 -420.5 242t-165.5 452q0 313 213 518t539 205q324 0 538.5 -203.5t214.5 -511.5q0 -259 -162 -455t-419 -247l53 -20q247 -95 356 -95q60 0 140 27zM842 1227q-236 0 -390 -152t-154 -383
q0 -225 155 -374.5t389 -149.5q231 0 389 153t158 377q0 229 -155 379t-392 150z" />
    <glyph glyph-name="R" unicode="R" horiz-adv-x="1237" 
d="M160 0v1397h350q212 0 336.5 -105t124.5 -284q0 -122 -61 -211t-175 -133q67 -44 131 -120t180 -265q73 -119 117 -179l74 -100h-238l-61 92q-3 5 -12 17l-39 55l-62 102l-67 109q-62 86 -113.5 137t-93 73.5t-139.5 22.5h-52v-608h-200zM420 1227h-60v-441h76
q152 0 208.5 26t88 78.5t31.5 119.5q0 66 -35 119.5t-98.5 75.5t-210.5 22z" />
    <glyph glyph-name="S" unicode="S" horiz-adv-x="938" 
d="M500 586l-152 92q-143 87 -203.5 171.5t-60.5 194.5q0 165 114.5 268t297.5 103q175 0 321 -98v-227q-151 145 -325 145q-98 0 -161 -45.5t-63 -116.5q0 -63 46 -118t149 -115l153 -90q256 -152 256 -388q0 -168 -112.5 -273t-292.5 -105q-207 0 -377 127v254
q162 -205 375 -205q94 0 156.5 52.5t62.5 131.5q0 128 -184 242z" />
    <glyph glyph-name="T" unicode="T" horiz-adv-x="1237" 
d="M35 1399h1167v-178h-487v-1221h-201v1221h-479v178z" />
    <glyph glyph-name="U" unicode="U" horiz-adv-x="1450" 
d="M1126 1397h201v-793q0 -161 -23.5 -243t-58 -136.5t-84.5 -97.5q-166 -143 -434 -143q-273 0 -438 142q-50 44 -84.5 98.5t-57 133.5t-22.5 248v791h201v-793q0 -197 45 -274t137 -123.5t217 -46.5q178 0 290 93q59 50 85 118t26 233v793z" />
    <glyph glyph-name="V" unicode="V" horiz-adv-x="1237" 
d="M1038 1397h199l-590 -1403h-45l-602 1403h201l420 -981z" />
    <glyph glyph-name="W" unicode="W" horiz-adv-x="2134" 
d="M1933 1397h199l-565 -1403h-43l-457 1136l-461 -1136h-43l-563 1403h201l385 -963l387 963h190l389 -963z" />
    <glyph glyph-name="X" unicode="X" horiz-adv-x="1450" 
d="M1165 1397h242l-557 -674l596 -723h-242l-475 578l-481 -578h-244l602 723l-559 674h244l438 -533z" />
    <glyph glyph-name="Y" unicode="Y" horiz-adv-x="1237" 
d="M995 1397h242l-516 -658v-739h-205v739l-516 658h242l374 -482z" />
    <glyph glyph-name="Z" unicode="Z" horiz-adv-x="1323" 
d="M82 1399h1204l-893 -1221h893v-178h-1261l895 1221h-838v178z" />
    <glyph glyph-name="bracketleft" unicode="[" horiz-adv-x="682" 
d="M176 1397h477v-164h-280v-1520h280v-164h-477v1848z" />
    <glyph glyph-name="backslash" unicode="\" horiz-adv-x="575" 
d="M426 -18l-402 1434h145l401 -1434h-144z" />
    <glyph glyph-name="bracketright" unicode="]" horiz-adv-x="682" 
d="M506 -451h-475v164h278v1520h-278v164h475v-1848z" />
    <glyph glyph-name="asciicircum" unicode="^" horiz-adv-x="961" 
d="M479 1194l-241 -598h-185l355 801h145l354 -801h-182z" />
    <glyph glyph-name="underscore" unicode="_" horiz-adv-x="1130" 
d="M1161 -406h-1190v132h1190v-132z" />
    <glyph glyph-name="grave" unicode="`" horiz-adv-x="683" 
d="M327 1419l138 -300h-112l-230 300h204z" />
    <glyph glyph-name="a" unicode="a" horiz-adv-x="874" 
d="M707 553v-391q0 -47 32 -47q33 0 103 49v-111q-62 -40 -99.5 -54.5t-78.5 -14.5q-117 0 -138 92q-116 -90 -247 -90q-96 0 -160 63.5t-64 159.5q0 87 62.5 155.5t177.5 108.5l233 80v49q0 166 -166 166q-149 0 -290 -154v199q106 125 305 125q149 0 239 -78
q30 -25 54 -66.5t30.5 -83t6.5 -157.5zM528 182v273l-122 -47q-93 -37 -131.5 -74.5t-38.5 -93.5q0 -57 36.5 -93t94.5 -36q87 0 161 71z" />
    <glyph glyph-name="b" unicode="b" 
d="M121 1397h182v-543q118 86 252 86q175 0 286 -132t111 -339q0 -222 -132.5 -353.5t-354.5 -131.5q-89 0 -187.5 19t-156.5 48v1346zM303 680v-498q93 -28 191 -28q121 0 197.5 86t76.5 221q0 137 -71.5 223t-186.5 86q-102 0 -207 -90z" />
    <glyph glyph-name="c" unicode="c" horiz-adv-x="897" 
d="M819 215v-180q-137 -51 -268 -51q-216 0 -344.5 128t-128.5 343q0 217 125 350t329 133q71 0 127.5 -13.5t139.5 -50.5v-194q-138 88 -256 88q-123 0 -202 -86.5t-79 -220.5q0 -141 85.5 -224t230.5 -83q105 0 241 61z" />
    <glyph glyph-name="d" unicode="d" horiz-adv-x="1044" 
d="M743 1397h183v-1397h-389q-204 0 -325.5 129t-121.5 346q0 203 127.5 334t325.5 131q92 0 200 -39v496zM743 156v583q-85 43 -172 43q-136 0 -216.5 -89t-80.5 -240q0 -142 70 -219q42 -46 89 -62t169 -16h141z" />
    <glyph glyph-name="e" unicode="e" horiz-adv-x="981" 
d="M913 444h-647q7 -132 88.5 -210t210.5 -78q180 0 332 112v-178q-84 -56 -166.5 -80t-193.5 -24q-152 0 -246 63t-150.5 169.5t-56.5 246.5q0 210 119 341.5t309 131.5q183 0 292 -128t109 -343v-23zM270 553h463q-7 109 -65 168t-156 59t-160.5 -59t-81.5 -168z" />
    <glyph glyph-name="f" unicode="f" horiz-adv-x="512" 
d="M150 920v55q0 222 94.5 331t226.5 109q57 0 135 -18v-178q-44 16 -84 16q-107 0 -148.5 -57t-41.5 -203v-55h164v-164h-164v-756h-182v756h-132v164h132z" />
    <glyph glyph-name="g" unicode="g" horiz-adv-x="874" 
d="M82 602q0 147 107.5 232.5t293.5 85.5h379v-142h-186q54 -55 75 -100t21 -103q0 -72 -41 -141.5t-105.5 -106.5t-211.5 -59q-103 -15 -103 -71q0 -32 38.5 -52.5t139.5 -42.5q169 -37 217.5 -58t87.5 -60q66 -66 66 -166q0 -131 -116.5 -209t-311.5 -78
q-197 0 -314.5 78.5t-117.5 210.5q0 187 231 241q-92 59 -92 117q0 44 39.5 80t106.5 53q-203 90 -203 291zM424 762q-74 0 -126 -50t-52 -120q0 -71 51 -117.5t129 -46.5q77 0 128.5 47.5t51.5 118.5q0 72 -52 120t-130 48zM381 -43q-92 0 -150.5 -39t-58.5 -100
q0 -142 256 -142q121 0 187.5 35.5t66.5 100.5q0 64 -84 104.5t-217 40.5z" />
    <glyph glyph-name="h" unicode="h" 
d="M125 1397h182v-598q114 139 283 139q92 0 165 -46t108.5 -127t35.5 -241v-524h-182v569q0 101 -49.5 162.5t-130.5 61.5q-60 0 -113 -31t-117 -103v-659h-182v1397z" />
    <glyph glyph-name="i" unicode="i" horiz-adv-x="449" 
d="M223 1307q45 0 77 -31t32 -76q0 -44 -32 -76t-77 -32q-42 0 -74 32.5t-32 75.5q0 42 32 74.5t74 32.5zM133 920h182v-920h-182v920z" />
    <glyph glyph-name="j" unicode="j" horiz-adv-x="449" 
d="M213 1307q45 0 77 -31.5t32 -75.5q0 -46 -30.5 -77t-76.5 -31q-43 0 -76 32t-33 76q0 42 32.5 74.5t74.5 32.5zM127 920h182v-1051q0 -239 -184 -338l-135 133q63 22 100 77t37 128v1051z" />
    <glyph glyph-name="k" unicode="k" horiz-adv-x="981" 
d="M727 920h217l-393 -451l473 -469h-244l-461 469zM129 1397h182v-1397h-182v1397z" />
    <glyph glyph-name="l" unicode="l" horiz-adv-x="449" 
d="M133 1397h182v-1397h-182v1397z" />
    <glyph glyph-name="m" unicode="m" horiz-adv-x="1579" 
d="M883 668v-668h-183v512q0 153 -41 213.5t-143 60.5q-57 0 -104.5 -26t-108.5 -92v-668h-182v920h182v-121q139 139 272 139q175 0 271 -166q146 168 305 168q134 0 220.5 -98t86.5 -299v-543h-182v545q0 115 -47 176t-135 61q-113 0 -211 -114z" />
    <glyph glyph-name="n" unicode="n" 
d="M311 920v-117q122 135 277 135q86 0 160 -44.5t112.5 -122t38.5 -245.5v-526h-182v524q0 141 -43 201.5t-144 60.5q-129 0 -219 -129v-657h-186v920h186z" />
    <glyph glyph-name="o" unicode="o" horiz-adv-x="1130" 
d="M569 922q210 0 349 -135.5t139 -340.5q0 -199 -141 -330.5t-355 -131.5q-207 0 -346 133.5t-139 333.5q0 202 140.5 336.5t352.5 134.5zM559 758q-131 0 -215 -86t-84 -219q0 -132 86 -215.5t221 -83.5q134 0 219.5 84.5t85.5 216.5q0 131 -89 217t-224 86z" />
    <glyph glyph-name="p" unicode="p" 
d="M117 -469v1389h319q245 0 381.5 -122t136.5 -341q0 -207 -128.5 -340t-327.5 -133q-88 0 -195 39v-492h-186zM432 750h-129v-566q84 -43 176 -43q128 0 209.5 89t81.5 229q0 90 -38.5 159t-105 100.5t-194.5 31.5z" />
    <glyph glyph-name="q" unicode="q" 
d="M563 920h344v-1389h-182v485q-119 -32 -201 -32q-196 0 -324 132t-128 335q0 215 133 342t358 127zM725 174v576h-115q-118 0 -157.5 -10.5t-68.5 -29t-53 -45.5q-75 -85 -75 -210q0 -141 84.5 -230.5t218.5 -89.5q31 0 51 4t88 27l14 4z" />
    <glyph glyph-name="r" unicode="r" horiz-adv-x="811" 
d="M324 920v-211l10 16q132 213 264 213q103 0 215 -104l-96 -160q-95 90 -176 90q-88 0 -152.5 -84t-64.5 -199v-481h-183v920h183z" />
    <glyph glyph-name="s" unicode="s" horiz-adv-x="788" 
d="M84 66v196q77 -54 157.5 -87.5t135.5 -33.5q57 0 98 28t41 67q0 40 -26.5 66.5t-114.5 76.5q-176 98 -230.5 167.5t-54.5 151.5q0 106 82.5 173t212.5 67q135 0 277 -76v-180q-162 98 -265 98q-53 0 -85.5 -22.5t-32.5 -59.5q0 -32 29.5 -61t103.5 -70l65 -37
q230 -130 230 -288q0 -113 -88.5 -185.5t-227.5 -72.5q-82 0 -146 17.5t-161 64.5z" />
    <glyph glyph-name="t" unicode="t" horiz-adv-x="682" 
d="M0 774l342 336v-190h291v-164h-291v-451q0 -158 131 -158q98 0 207 66v-170q-105 -59 -229 -59q-125 0 -208 73q-26 22 -43 49.5t-28.5 72t-11.5 169.5v408h-160v18z" />
    <glyph glyph-name="u" unicode="u" 
d="M715 0v117q-58 -63 -132.5 -98t-148.5 -35q-87 0 -160.5 43.5t-111 118t-37.5 247.5v527h182v-525q0 -145 41.5 -202.5t145.5 -57.5q130 0 221 127v658h182v-920h-182z" />
    <glyph glyph-name="v" unicode="v" horiz-adv-x="897" 
d="M692 920h197l-406 -936h-61l-416 936h199l248 -566z" />
    <glyph glyph-name="w" unicode="w" horiz-adv-x="1473" 
d="M1278 920h195l-406 -936h-57l-273 641l-268 -641h-59l-410 936h195l241 -558l234 558h135l233 -558z" />
    <glyph glyph-name="x" unicode="x" 
d="M764 920h233l-379 -453l406 -467h-233l-289 330l-273 -330h-229l387 467l-387 453h229l273 -316z" />
    <glyph glyph-name="y" unicode="y" horiz-adv-x="897" 
d="M692 920h205l-651 -1389h-203l313 666l-356 723h207l248 -519z" />
    <glyph glyph-name="z" unicode="z" horiz-adv-x="854" 
d="M43 920h786l-487 -750h487v-170h-806l483 750h-463v170z" />
    <glyph glyph-name="braceleft" unicode="{" horiz-adv-x="682" 
d="M57 449v163q72 0 121.5 35.5t67 105t18.5 246.5q2 212 14.5 280.5t57.5 124.5q39 49 92 68t152 19h57v-156h-33q-105 0 -137.5 -39.5t-32.5 -167.5v-147q0 -133 -19 -217.5t-60.5 -138t-131.5 -95.5q118 -49 164.5 -148t46.5 -304v-144q0 -128 32 -167t138 -39h33v-156
h-57q-102 0 -155.5 19.5t-91.5 69.5q-43 57 -55 125t-14 275q-1 180 -19.5 249t-70.5 104t-117 35z" />
    <glyph glyph-name="bar" unicode="|" horiz-adv-x="532" 
d="M188 -472v1869h157v-1869h-157z" />
    <glyph glyph-name="braceright" unicode="}" horiz-adv-x="682" 
d="M47 1491h55q101 0 155 -19.5t91 -69.5q44 -58 56.5 -126t15.5 -277q0 -176 17 -246t66.5 -105.5t121.5 -35.5v-163q-65 0 -118 -35.5t-71 -106t-19 -246.5q-1 -208 -13 -276.5t-56 -125.5q-39 -50 -91 -68.5t-155 -18.5h-55v156h31q107 0 139.5 39t32.5 167v144
q0 204 46 303.5t163 148.5q-85 41 -125 87t-62 133.5t-22 230.5v147q0 129 -33 168t-139 39h-31v156z" />
    <glyph glyph-name="asciitilde" unicode="~" horiz-adv-x="1194" 
d="M348 670q-69 0 -125 -28.5t-137 -106.5v204q109 121 279 121q115 0 274 -69l80 -35q62 -29 133 -29q132 0 258 135v-211q-122 -114 -276 -114q-105 0 -246 61l-62 27q-104 45 -178 45z" />
    <glyph glyph-name="nonbreakingspace" unicode="&#xa0;" horiz-adv-x="569" 
 />
    <glyph glyph-name="exclamdown" unicode="&#xa1;" horiz-adv-x="555" 
d="M152 924q0 50 37 86.5t87 36.5q53 0 89 -35.5t36 -87.5q0 -54 -35 -90.5t-87 -36.5q-54 0 -90.5 36.5t-36.5 90.5zM207 379l14 74q20 104 30.5 136t22.5 32q16 0 25 -33q0 -6 16 -53q22 -65 48 -275t26 -358q0 -293 -113 -293q-114 0 -114 287q0 248 45 483z" />
    <glyph glyph-name="cent" unicode="&#xa2;" horiz-adv-x="897" 
d="M739 1270h95l-129 -359q20 -8 24 -8q42 -15 68 -31v-192q-63 51 -150 74l-209 -576q73 -26 129 -26q64 0 134.5 17.5t115.5 45.5v-176q-145 -57 -278 -57q-88 0 -162 18l-141 -387h-97l158 426q-102 57 -160.5 166t-58.5 241q0 224 125.5 358t335.5 134q25 0 79 -6z
M362 223l197 545h-18q-124 0 -201.5 -87.5t-77.5 -227.5q0 -141 100 -230z" />
    <glyph glyph-name="sterling" unicode="&#xa3;" horiz-adv-x="1087" 
d="M694 -8l-108 16q-72 10 -148 10q-166 0 -317 -34l162 602h-148v178h195q52 193 135 352.5t179.5 229t201.5 69.5q27 0 74 -8l114 -213q-58 31 -145 31q-110 0 -192.5 -96t-149.5 -302l-21 -63h156v-178h-209l-102 -387q30 4 78 4q110 0 182 -13l80 -14q37 -8 98 -8
q133 0 207 45v-195q-107 -34 -205 -34q-65 0 -117 8z" />
    <glyph glyph-name="currency" unicode="&#xa4;" horiz-adv-x="1130" 
d="M213 934l-139 136l115 119l139 -140q53 37 112.5 55t124.5 18q66 0 125.5 -18t111.5 -55l139 140l116 -119l-139 -136q71 -110 71 -235q0 -126 -71 -236l139 -136l-116 -119l-139 140q-52 -36 -111.5 -54.5t-125.5 -18.5q-65 0 -124.5 18.5t-112.5 54.5l-139 -140
l-115 119l139 136q-71 110 -71 236q0 125 71 235zM305 699q0 -108 76 -184t183 -76t183 76t76 184q0 107 -75.5 183t-183.5 76q-107 0 -183 -76t-76 -183z" />
    <glyph glyph-name="yen" unicode="&#xa5;" horiz-adv-x="1130" 
d="M659 0h-182v326h-416v137h416v143h-416v150h342l-403 710h199l288 -516q50 -86 76 -153q19 42 82 161l275 508h213l-404 -710h340v-150h-410v-143h410v-137h-410v-326z" />
    <glyph glyph-name="brokenbar" unicode="&#xa6;" horiz-adv-x="532" 
d="M188 701v696h157v-696h-157zM188 -472v832h157v-832h-157z" />
    <glyph glyph-name="section" unicode="&#xa7;" horiz-adv-x="831" 
d="M145 1098q0 136 88 226.5t220 90.5q107 0 175 -48.5t68 -125.5q0 -49 -30 -81t-76 -32q-35 0 -58.5 24.5t-23.5 61.5v11q2 8 2 16q0 43 -64 43q-63 0 -100 -37.5t-37 -101.5q0 -129 180 -299l95 -88q66 -61 124 -163.5t58 -211.5q0 -90 -35 -162.5t-117 -154.5
q72 -99 72 -224q0 -130 -91.5 -220.5t-223.5 -90.5q-105 0 -173.5 51.5t-68.5 130.5q0 52 33 89.5t80 37.5q43 0 70.5 -27.5t27.5 -70.5q0 -17 -4 -34q-2 -8 -2 -11q0 -14 14 -24.5t33 -10.5q60 0 103.5 44t43.5 104q0 63 -45 133t-168 202q-111 111 -155 175.5t-69 142.5
t-25 153q0 162 135 285q-56 96 -56 197zM434 643l-147 143q-64 -74 -64 -151q0 -41 17.5 -89.5t49 -94t140.5 -160.5l100 -107q34 35 55 83t21 89t-12.5 79.5t-36.5 73.5t-123 134z" />
    <glyph glyph-name="dieresis" unicode="&#xa8;" horiz-adv-x="683" 
d="M148 1366q39 0 67.5 -28t28.5 -68t-27 -67.5t-66 -27.5q-40 0 -68 28.5t-28 67.5q0 40 27.5 67.5t65.5 27.5zM533 1366q39 0 67.5 -28t28.5 -68t-27 -67.5t-66 -27.5q-40 0 -68 28.5t-28 67.5q0 40 27.5 67.5t65.5 27.5z" />
    <glyph glyph-name="copyright" unicode="&#xa9;" horiz-adv-x="1516" 
d="M1108 850l-119 -29q-61 154 -227 154q-120 0 -191 -86.5t-71 -231.5q0 -144 67.5 -226.5t184.5 -82.5q91 0 157.5 51.5t89.5 140.5l123 -36q-31 -128 -128 -201.5t-236 -73.5q-180 0 -288 118t-108 314q0 197 108.5 310.5t295.5 113.5q131 0 219.5 -61t122.5 -174z
M758 1417q202 0 377 -101.5t276.5 -276t101.5 -376.5q0 -203 -101 -377t-276 -275t-378 -101q-204 0 -379 100.5t-276 275t-101 377.5t101.5 377.5t276.5 275.5t378 101zM758 1292q-260 0 -444.5 -184.5t-184.5 -444.5q0 -261 184 -444.5t445 -183.5q260 0 444 184t184 444
t-184.5 444.5t-443.5 184.5z" />
    <glyph glyph-name="ordfeminine" unicode="&#xaa;" horiz-adv-x="575" 
d="M473 1182v-207q0 -45 10 -45q16 0 76 41v-86q-77 -47 -127 -47q-76 0 -94 47q-73 -47 -154 -47q-65 0 -109 41t-44 102q0 108 164 160l139 45v24q0 90 -92 90q-52 0 -97 -23.5t-104 -82.5v141q73 80 207 80q120 0 172.5 -54.5t52.5 -178.5zM334 965v147l-64 -22
q-54 -20 -76 -41t-22 -52q0 -69 72 -69q43 0 90 37z" />
    <glyph glyph-name="guillemotleft" unicode="&#xab;" horiz-adv-x="1004" 
d="M653 461l303 -461h-180l-301 461l301 459h180zM238 461l303 -461h-181l-303 461l303 459h181z" />
    <glyph glyph-name="logicalnot" unicode="&#xac;" horiz-adv-x="1196" 
d="M1081 257h-170v438h-798v168h968v-606z" />
    <glyph glyph-name="softhyphen" unicode="&#xad;" horiz-adv-x="661" 
d="M580 550v-194h-498v194h498z" />
    <glyph glyph-name="registered" unicode="&#xae;" horiz-adv-x="1516" 
d="M587 258h-131v811h281q149 0 210.5 -23.5t98.5 -78.5t37 -117q0 -93 -65 -157t-167 -72q46 -19 86.5 -62.5t102.5 -142.5l98 -158h-160l-71 127q-77 137 -122 177.5t-120 40.5h-78v-345zM587 959v-244h160q102 0 149 29.5t47 93.5q0 67 -45.5 94t-160.5 27h-150z
M758 1417q202 0 377 -101.5t276.5 -276t101.5 -376.5q0 -203 -101 -377t-276 -275t-378 -101q-204 0 -379 100.5t-276 275t-101 377.5t101.5 377.5t276.5 275.5t378 101zM758 1292q-260 0 -444.5 -184.5t-184.5 -444.5q0 -261 184 -444.5t445 -183.5q260 0 444 184t184 444
t-184.5 444.5t-443.5 184.5z" />
    <glyph glyph-name="macron" unicode="&#xaf;" horiz-adv-x="1130" 
d="M-35 1496v132h1200v-132h-1200z" />
    <glyph glyph-name="degree" unicode="&#xb0;" horiz-adv-x="811" 
d="M127 1214q0 114 82 195.5t197 81.5q114 0 195 -81.5t81 -195.5q0 -115 -81 -196.5t-195 -81.5q-115 0 -197 81.5t-82 196.5zM236 1214q0 -70 50 -120t120 -50q69 0 118 50t49 120t-48.5 119t-118.5 49q-71 0 -120.5 -49t-49.5 -119z" />
    <glyph glyph-name="plusminus" unicode="&#xb1;" horiz-adv-x="1196" 
d="M513 260v403h-399v167h399v399h170v-399h399v-167h-399v-403h-170zM1082 0h-968v168h968v-168z" />
    <glyph glyph-name="twosuperior" unicode="&#xb2;" horiz-adv-x="662" 
d="M297 791h307v-111h-547v14l6 6q9 11 37 39q125 128 213 240.5t88 193.5q0 58 -35.5 92.5t-95.5 34.5q-103 0 -194 -118v159q101 74 209 74q113 0 186.5 -64t73.5 -163q0 -39 -16 -84.5t-41 -83.5t-179 -215z" />
    <glyph glyph-name="threesuperior" unicode="&#xb3;" horiz-adv-x="662" 
d="M233 1108h13q153 0 153 102q0 45 -35.5 72t-95.5 27q-59 0 -153 -41v112q77 35 168 35q118 0 187 -53.5t69 -144.5q0 -103 -97 -154q111 -42 111 -170q0 -97 -75.5 -160t-190.5 -63q-94 0 -193 45v129q103 -60 193 -60q55 0 87 28.5t32 76.5q0 52 -34.5 78t-113.5 32
l-25 2v107z" />
    <glyph glyph-name="acute" unicode="&#xb4;" horiz-adv-x="683" 
d="M566 1419l-226 -300h-112l135 300h203z" />
    <glyph glyph-name="mu" unicode="&#xb5;" horiz-adv-x="1130" 
d="M793 0v109q-46 -71 -97 -100t-129 -29q-71 0 -118.5 24.5t-96.5 87.5v-442h-174v1270h174v-447q0 -146 20.5 -209.5t70.5 -104t116 -40.5q68 0 122 38t75.5 99.5t21.5 212.5v451h174v-920h-159z" />
    <glyph glyph-name="paragraph" unicode="&#xb6;" horiz-adv-x="1110" 
d="M569 -406h-163v1043q-186 11 -295 121.5t-109 290.5q0 189 121 303q52 49 133 81.5t217 32.5h633v-174h-143v-1698h-170v1698h-224v-1698z" />
    <glyph glyph-name="periodcentered" unicode="&#xb7;" horiz-adv-x="683" 
d="M741 720q0 -44 -31 -75.5t-76 -31.5t-76.5 32t-31.5 77q0 44 31.5 75.5t76.5 31.5q44 0 75.5 -31.5t31.5 -77.5z" />
    <glyph glyph-name="cedilla" unicode="&#xb8;" horiz-adv-x="683" 
d="M428 16l-15 -49q54 -13 84.5 -50t30.5 -84q0 -76 -61 -129.5t-195 -53.5q-37 0 -65 5v113q51 -4 64 -4q57 0 89 22q19 13 19 34q0 24 -20.5 40t-75.5 16q-11 0 -23 -3l51 143h117z" />
    <glyph glyph-name="onesuperior" unicode="&#xb9;" horiz-adv-x="662" 
d="M260 1407h141v-727h-141v727z" />
    <glyph glyph-name="ordmasculine" unicode="&#xba;" horiz-adv-x="748" 
d="M360 1415q151 0 245.5 -79.5t94.5 -205.5q0 -120 -94 -200t-235 -80q-138 0 -231 81.5t-93 203.5t88 201t225 79zM371 1307q-78 0 -129.5 -50.5t-51.5 -126.5q0 -73 51.5 -119t133.5 -46q81 0 132.5 47.5t51.5 122.5t-53.5 123.5t-134.5 48.5z" />
    <glyph glyph-name="guillemotright" unicode="&#xbb;" horiz-adv-x="1004" 
d="M350 459l-303 461h178l303 -461l-303 -459h-178zM766 459l-303 461h178l303 -461l-303 -459h-178z" />
    <glyph glyph-name="onequarter" unicode="&#xbc;" horiz-adv-x="1729" 
d="M260 1407h141v-727h-141v727zM490 -55h-137l930 1470h139zM1586 336h92v-101h-92v-233h-139v233h-348v54l420 448h67v-401zM1447 510l-160 -174h160v174z" />
    <glyph glyph-name="onehalf" unicode="&#xbd;" horiz-adv-x="1729" 
d="M260 1407h141v-727h-141v727zM429 -55h-137l930 1470h139zM1366 114h307v-111h-547v14l6 6q9 11 37 39q125 128 213 240.5t88 193.5q0 58 -35.5 92.5t-95.5 34.5q-103 0 -194 -118v159q101 74 209 74q113 0 186.5 -64t73.5 -163q0 -39 -16 -84.5t-41 -83.5t-179 -215z
" />
    <glyph glyph-name="threequarters" unicode="&#xbe;" horiz-adv-x="1729" 
d="M233 1108h13q153 0 153 102q0 45 -35.5 72t-95.5 27q-59 0 -153 -41v112q77 35 168 35q118 0 187 -53.5t69 -144.5q0 -103 -97 -154q111 -42 111 -170q0 -97 -75.5 -160t-190.5 -63q-94 0 -193 45v129q103 -60 193 -60q55 0 87 28.5t32 76.5q0 52 -34.5 78t-113.5 32
l-25 2v107zM466 -55h-137l930 1470h139zM1586 336h92v-101h-92v-233h-139v233h-348v54l420 448h67v-401zM1447 510l-160 -174h160v174z" />
    <glyph glyph-name="questiondown" unicode="&#xbf;" horiz-adv-x="682" 
d="M594 -172l-133 -217q-156 3 -242 87t-86 210q0 80 32.5 169t144.5 260q132 203 132 288q0 11 -6 43q68 -32 96.5 -76.5t28.5 -116.5q0 -70 -23.5 -125t-112.5 -197q-85 -136 -85 -221q0 -63 37.5 -100t101.5 -37q48 0 115 33zM287 922q0 50 36.5 85t88.5 35t87.5 -34.5
t35.5 -85.5q0 -52 -36 -87.5t-87 -35.5q-53 0 -89 35.5t-36 87.5z" />
    <glyph glyph-name="Agrave" unicode="&#xc0;" horiz-adv-x="1366" 
d="M600 1405h141l625 -1405h-205l-186 414h-594l-176 -414h-205zM893 592l-225 506l-209 -506h434zM637 1800l138 -300h-112l-230 300h204z" />
    <glyph glyph-name="Aacute" unicode="&#xc1;" horiz-adv-x="1366" 
d="M600 1405h141l625 -1405h-205l-186 414h-594l-176 -414h-205zM893 592l-225 506l-209 -506h434zM908 1800l-226 -300h-112l135 300h203z" />
    <glyph glyph-name="Acircumflex" unicode="&#xc2;" horiz-adv-x="1366" 
d="M600 1405h141l625 -1405h-205l-186 414h-594l-176 -414h-205zM893 592l-225 506l-209 -506h434zM775 1809l193 -309h-112l-179 177l-171 -177h-108l187 309h190z" />
    <glyph glyph-name="Atilde" unicode="&#xc3;" horiz-adv-x="1366" 
d="M600 1405h141l625 -1405h-205l-186 414h-594l-176 -414h-205zM893 592l-225 506l-209 -506h434zM964 1777q-1 -121 -56 -189q-42 -53 -105 -53q-55 0 -148 40t-140 40q-26 0 -45 -20t-23 -60h-84q16 141 58 188.5t106 47.5q58 0 189 -53q67 -27 96 -27q28 0 47.5 19.5
t26.5 66.5h78z" />
    <glyph glyph-name="Adieresis" unicode="&#xc4;" horiz-adv-x="1366" 
d="M600 1405h141l625 -1405h-205l-186 414h-594l-176 -414h-205zM893 592l-225 506l-209 -506h434zM490 1706q39 0 67.5 -28t28.5 -68t-27 -67.5t-66 -27.5q-40 0 -68 28.5t-28 67.5q0 40 27.5 67.5t65.5 27.5zM875 1706q39 0 67.5 -28t28.5 -68t-27 -67.5t-66 -27.5
q-40 0 -68 28.5t-28 67.5q0 40 27.5 67.5t65.5 27.5z" />
    <glyph glyph-name="Aring" unicode="&#xc5;" horiz-adv-x="1366" 
d="M600 1405h141l625 -1405h-205l-186 414h-594l-176 -414h-205zM893 592l-225 506l-209 -506h434zM685 1880q77 0 132.5 -55t55.5 -134t-55.5 -135t-134.5 -56q-78 0 -133.5 55.5t-55.5 133.5q0 80 56.5 135.5t134.5 55.5zM680 1799q-51 0 -81.5 -30.5t-30.5 -79.5
q0 -48 33.5 -81.5t81.5 -33.5t82 33t34 80t-34 79.5t-85 32.5z" />
    <glyph glyph-name="AE" unicode="&#xc6;" horiz-adv-x="1835" 
d="M831 1397h912v-178h-574v-422h555v-179h-555v-438h596v-178h-796v616h-381l-365 -616h-219zM969 797v465l-277 -465h277z" />
    <glyph glyph-name="Ccedilla" unicode="&#xc7;" horiz-adv-x="1450" 
d="M846 -16l-5 -17q54 -13 84.5 -50t30.5 -84q0 -76 -61 -129.5t-195 -53.5q-37 0 -65 5v113q51 -4 64 -4q57 0 89 22q19 13 19 34q0 24 -20.5 40t-75.5 16q-11 0 -23 -3l42 118q-159 18 -277 87q-164 95 -258.5 259.5t-94.5 356.5q0 305 217.5 513t536.5 208
q220 0 489 -115v-215q-245 140 -479 140q-240 0 -398.5 -151.5t-158.5 -379.5q0 -230 156 -378t399 -148q254 0 496 156v-220q-220 -120 -508 -120h-4z" />
    <glyph glyph-name="Egrave" unicode="&#xc8;" 
d="M154 1397h792v-178h-592v-426h572v-179h-572v-434h611v-178h-811v1395zM497 1800l138 -300h-112l-230 300h204z" />
    <glyph glyph-name="Eacute" unicode="&#xc9;" 
d="M154 1397h792v-178h-592v-426h572v-179h-572v-434h611v-178h-811v1395zM736 1800l-226 -300h-112l135 300h203z" />
    <glyph glyph-name="Ecircumflex" unicode="&#xca;" 
d="M154 1397h792v-178h-592v-426h572v-179h-572v-434h611v-178h-811v1395zM643 1809l193 -309h-112l-179 177l-171 -177h-108l187 309h190z" />
    <glyph glyph-name="Edieresis" unicode="&#xcb;" 
d="M154 1397h792v-178h-592v-426h572v-179h-572v-434h611v-178h-811v1395zM318 1706q39 0 67.5 -28t28.5 -68t-27 -67.5t-66 -27.5q-40 0 -68 28.5t-28 67.5q0 40 27.5 67.5t65.5 27.5zM703 1706q39 0 67.5 -28t28.5 -68t-27 -67.5t-66 -27.5q-40 0 -68 28.5t-28 67.5
q0 40 27.5 67.5t65.5 27.5z" />
    <glyph glyph-name="Igrave" unicode="&#xcc;" horiz-adv-x="512" 
d="M156 1397h200v-1397h-200v1397zM208 1800l138 -300h-112l-230 300h204z" />
    <glyph glyph-name="Iacute" unicode="&#xcd;" horiz-adv-x="512" 
d="M156 1397h200v-1397h-200v1397zM535 1800l-226 -300h-112l135 300h203z" />
    <glyph glyph-name="Icircumflex" unicode="&#xce;" horiz-adv-x="512" 
d="M156 1397h200v-1397h-200v1397zM363 1809l193 -309h-112l-179 177l-171 -177h-108l187 309h190z" />
    <glyph glyph-name="Idieresis" unicode="&#xcf;" horiz-adv-x="512" 
d="M156 1397h200v-1397h-200v1397zM72 1706q39 0 67.5 -28t28.5 -68t-27 -67.5t-66 -27.5q-40 0 -68 28.5t-28 67.5q0 40 27.5 67.5t65.5 27.5zM457 1706q39 0 67.5 -28t28.5 -68t-27 -67.5t-66 -27.5q-40 0 -68 28.5t-28 67.5q0 40 27.5 67.5t65.5 27.5z" />
    <glyph glyph-name="Eth" unicode="&#xd0;" horiz-adv-x="1536" 
d="M156 2v631h-162v131h162v633h471q285 0 451 -85.5t264 -251.5t98 -362q0 -140 -54 -268t-154 -225q-102 -100 -237 -151q-79 -31 -145 -41.5t-252 -10.5h-442zM752 633h-396v-453h256q150 0 233 20.5t138.5 52t101.5 77.5q148 150 148 379q0 225 -152 367
q-56 53 -128.5 87t-137.5 45t-209 11h-250v-455h396v-131z" />
    <glyph glyph-name="Ntilde" unicode="&#xd1;" horiz-adv-x="1599" 
d="M1264 1397h190v-1397h-172l-934 1075v-1075h-188v1397h162l942 -1084v1084zM1126 1777q-1 -121 -56 -189q-42 -53 -105 -53q-55 0 -148 40t-140 40q-26 0 -45 -20t-23 -60h-84q16 141 58 188.5t106 47.5q58 0 189 -53q67 -27 96 -27q28 0 47.5 19.5t26.5 66.5h78z" />
    <glyph glyph-name="Ograve" unicode="&#xd2;" horiz-adv-x="1686" 
d="M840 1417q324 0 539.5 -205t215.5 -514t-217.5 -511.5t-548.5 -202.5q-316 0 -526.5 202.5t-210.5 507.5q0 313 212 518t536 205zM848 1227q-240 0 -394.5 -150t-154.5 -383q0 -226 155 -376t388 -150q234 0 390.5 153t156.5 381q0 222 -156.5 373.5t-384.5 151.5z
M808 1800l138 -300h-112l-230 300h204z" />
    <glyph glyph-name="Oacute" unicode="&#xd3;" horiz-adv-x="1686" 
d="M840 1417q324 0 539.5 -205t215.5 -514t-217.5 -511.5t-548.5 -202.5q-316 0 -526.5 202.5t-210.5 507.5q0 313 212 518t536 205zM848 1227q-240 0 -394.5 -150t-154.5 -383q0 -226 155 -376t388 -150q234 0 390.5 153t156.5 381q0 222 -156.5 373.5t-384.5 151.5z
M1043 1800l-226 -300h-112l135 300h203z" />
    <glyph glyph-name="Ocircumflex" unicode="&#xd4;" horiz-adv-x="1686" 
d="M840 1417q324 0 539.5 -205t215.5 -514t-217.5 -511.5t-548.5 -202.5q-316 0 -526.5 202.5t-210.5 507.5q0 313 212 518t536 205zM848 1227q-240 0 -394.5 -150t-154.5 -383q0 -226 155 -376t388 -150q234 0 390.5 153t156.5 381q0 222 -156.5 373.5t-384.5 151.5z
M902 1809l193 -309h-112l-179 177l-171 -177h-108l187 309h190z" />
    <glyph glyph-name="Otilde" unicode="&#xd5;" horiz-adv-x="1686" 
d="M840 1417q324 0 539.5 -205t215.5 -514t-217.5 -511.5t-548.5 -202.5q-316 0 -526.5 202.5t-210.5 507.5q0 313 212 518t536 205zM848 1227q-240 0 -394.5 -150t-154.5 -383q0 -226 155 -376t388 -150q234 0 390.5 153t156.5 381q0 222 -156.5 373.5t-384.5 151.5z
M1148 1777q-1 -121 -56 -189q-42 -53 -105 -53q-55 0 -148 40t-140 40q-26 0 -45 -20t-23 -60h-84q16 141 58 188.5t106 47.5q58 0 189 -53q67 -27 96 -27q28 0 47.5 19.5t26.5 66.5h78z" />
    <glyph glyph-name="Odieresis" unicode="&#xd6;" horiz-adv-x="1686" 
d="M840 1417q324 0 539.5 -205t215.5 -514t-217.5 -511.5t-548.5 -202.5q-316 0 -526.5 202.5t-210.5 507.5q0 313 212 518t536 205zM848 1227q-240 0 -394.5 -150t-154.5 -383q0 -226 155 -376t388 -150q234 0 390.5 153t156.5 381q0 222 -156.5 373.5t-384.5 151.5z
M637 1706q39 0 67.5 -28t28.5 -68t-27 -67.5t-66 -27.5q-40 0 -68 28.5t-28 67.5q0 40 27.5 67.5t65.5 27.5zM1022 1706q39 0 67.5 -28t28.5 -68t-27 -67.5t-66 -27.5q-40 0 -68 28.5t-28 67.5q0 40 27.5 67.5t65.5 27.5z" />
    <glyph glyph-name="multiply" unicode="&#xd7;" horiz-adv-x="1196" 
d="M161 410l315 315l-315 313l122 122l314 -314l314 314l121 -122l-313 -313l313 -315l-121 -121l-314 314l-314 -314z" />
    <glyph glyph-name="Oslash" unicode="&#xd8;" horiz-adv-x="1686" 
d="M1374 1419l94 -82l-94 -114q104 -95 161.5 -232t57.5 -289q0 -309 -213.5 -512.5t-537.5 -203.5q-263 0 -432 114l-101 -118l-96 77l96 119q-102 93 -158.5 228.5t-56.5 285.5q0 314 212.5 518.5t537.5 204.5q228 0 432 -117zM1239 1071l-700 -819q144 -82 303 -82
q236 0 390 151.5t154 383.5q0 103 -39 200t-108 166zM442 328l703 821q-141 82 -299 82q-235 0 -390 -151t-155 -380q0 -211 141 -372z" />
    <glyph glyph-name="Ugrave" unicode="&#xd9;" horiz-adv-x="1450" 
d="M1126 1397h201v-793q0 -161 -23.5 -243t-58 -136.5t-84.5 -97.5q-166 -143 -434 -143q-273 0 -438 142q-50 44 -84.5 98.5t-57 133.5t-22.5 248v791h201v-793q0 -197 45 -274t137 -123.5t217 -46.5q178 0 290 93q59 50 85 118t26 233v793zM667 1800l138 -300h-112
l-230 300h204z" />
    <glyph glyph-name="Uacute" unicode="&#xda;" horiz-adv-x="1450" 
d="M1126 1397h201v-793q0 -161 -23.5 -243t-58 -136.5t-84.5 -97.5q-166 -143 -434 -143q-273 0 -438 142q-50 44 -84.5 98.5t-57 133.5t-22.5 248v791h201v-793q0 -197 45 -274t137 -123.5t217 -46.5q178 0 290 93q59 50 85 118t26 233v793zM962 1800l-226 -300h-112
l135 300h203z" />
    <glyph glyph-name="Ucircumflex" unicode="&#xdb;" horiz-adv-x="1450" 
d="M1126 1397h201v-793q0 -161 -23.5 -243t-58 -136.5t-84.5 -97.5q-166 -143 -434 -143q-273 0 -438 142q-50 44 -84.5 98.5t-57 133.5t-22.5 248v791h201v-793q0 -197 45 -274t137 -123.5t217 -46.5q178 0 290 93q59 50 85 118t26 233v793zM809 1809l193 -309h-112
l-179 177l-171 -177h-108l187 309h190z" />
    <glyph glyph-name="Udieresis" unicode="&#xdc;" horiz-adv-x="1450" 
d="M1126 1397h201v-793q0 -161 -23.5 -243t-58 -136.5t-84.5 -97.5q-166 -143 -434 -143q-273 0 -438 142q-50 44 -84.5 98.5t-57 133.5t-22.5 248v791h201v-793q0 -197 45 -274t137 -123.5t217 -46.5q178 0 290 93q59 50 85 118t26 233v793zM533 1706q39 0 67.5 -28
t28.5 -68t-27 -67.5t-66 -27.5q-40 0 -68 28.5t-28 67.5q0 40 27.5 67.5t65.5 27.5zM918 1706q39 0 67.5 -28t28.5 -68t-27 -67.5t-66 -27.5q-40 0 -68 28.5t-28 67.5q0 40 27.5 67.5t65.5 27.5z" />
    <glyph glyph-name="Yacute" unicode="&#xdd;" horiz-adv-x="1237" 
d="M995 1397h242l-516 -658v-739h-205v739l-516 658h242l374 -482zM842 1800l-226 -300h-112l135 300h203z" />
    <glyph glyph-name="Thorn" unicode="&#xde;" horiz-adv-x="1044" 
d="M143 0v1397h201v-301h242q201 0 319.5 -108.5t118.5 -291.5q0 -174 -120 -284q-66 -60 -159 -84.5t-253 -24.5h-148v-303h-201zM551 917h-207v-436h219q122 0 188 57.5t66 163.5q0 215 -266 215z" />
    <glyph glyph-name="germandbls" unicode="&#xdf;" 
d="M473 846h27q103 0 160 56t57 157q0 94 -59.5 154.5t-151.5 60.5q-106 0 -154.5 -65t-48.5 -208v-1001h-182v999q0 124 40 222.5t128.5 146t220.5 47.5q180 0 283.5 -89.5t103.5 -244.5q0 -107 -53 -189t-148 -122q124 -32 192 -128.5t68 -240.5q0 -184 -100 -299.5
t-258 -115.5q-76 0 -141 14v178q50 -22 100 -22q98 0 156.5 70t58.5 188q0 79 -29.5 137.5t-87 92t-182.5 36.5v166z" />
    <glyph glyph-name="agrave" unicode="&#xe0;" horiz-adv-x="874" 
d="M707 553v-391q0 -47 32 -47q33 0 103 49v-111q-62 -40 -99.5 -54.5t-78.5 -14.5q-117 0 -138 92q-116 -90 -247 -90q-96 0 -160 63.5t-64 159.5q0 87 62.5 155.5t177.5 108.5l233 80v49q0 166 -166 166q-149 0 -290 -154v199q106 125 305 125q149 0 239 -78
q30 -25 54 -66.5t30.5 -83t6.5 -157.5zM528 182v273l-122 -47q-93 -37 -131.5 -74.5t-38.5 -93.5q0 -57 36.5 -93t94.5 -36q87 0 161 71zM423 1420l138 -300h-112l-230 300h204z" />
    <glyph glyph-name="aacute" unicode="&#xe1;" horiz-adv-x="874" 
d="M707 553v-391q0 -47 32 -47q33 0 103 49v-111q-62 -40 -99.5 -54.5t-78.5 -14.5q-117 0 -138 92q-116 -90 -247 -90q-96 0 -160 63.5t-64 159.5q0 87 62.5 155.5t177.5 108.5l233 80v49q0 166 -166 166q-149 0 -290 -154v199q106 125 305 125q149 0 239 -78
q30 -25 54 -66.5t30.5 -83t6.5 -157.5zM528 182v273l-122 -47q-93 -37 -131.5 -74.5t-38.5 -93.5q0 -57 36.5 -93t94.5 -36q87 0 161 71zM662 1419l-226 -300h-112l135 300h203z" />
    <glyph glyph-name="acircumflex" unicode="&#xe2;" horiz-adv-x="874" 
d="M707 553v-391q0 -47 32 -47q33 0 103 49v-111q-62 -40 -99.5 -54.5t-78.5 -14.5q-117 0 -138 92q-116 -90 -247 -90q-96 0 -160 63.5t-64 159.5q0 87 62.5 155.5t177.5 108.5l233 80v49q0 166 -166 166q-149 0 -290 -154v199q106 125 305 125q149 0 239 -78
q30 -25 54 -66.5t30.5 -83t6.5 -157.5zM528 182v273l-122 -47q-93 -37 -131.5 -74.5t-38.5 -93.5q0 -57 36.5 -93t94.5 -36q87 0 161 71zM529 1427l193 -309h-112l-179 177l-171 -177h-108l187 309h190z" />
    <glyph glyph-name="atilde" unicode="&#xe3;" horiz-adv-x="874" 
d="M707 553v-391q0 -47 32 -47q33 0 103 49v-111q-62 -40 -99.5 -54.5t-78.5 -14.5q-117 0 -138 92q-116 -90 -247 -90q-96 0 -160 63.5t-64 159.5q0 87 62.5 155.5t177.5 108.5l233 80v49q0 166 -166 166q-149 0 -290 -154v199q106 125 305 125q149 0 239 -78
q30 -25 54 -66.5t30.5 -83t6.5 -157.5zM528 182v273l-122 -47q-93 -37 -131.5 -74.5t-38.5 -93.5q0 -57 36.5 -93t94.5 -36q87 0 161 71zM738 1397q-1 -121 -56 -189q-42 -53 -105 -53q-55 0 -148 40t-140 40q-26 0 -45 -20t-23 -60h-84q16 141 58 188.5t106 47.5
q58 0 189 -53q67 -27 96 -27q28 0 47.5 19.5t26.5 66.5h78z" />
    <glyph glyph-name="adieresis" unicode="&#xe4;" horiz-adv-x="874" 
d="M707 553v-391q0 -47 32 -47q33 0 103 49v-111q-62 -40 -99.5 -54.5t-78.5 -14.5q-117 0 -138 92q-116 -90 -247 -90q-96 0 -160 63.5t-64 159.5q0 87 62.5 155.5t177.5 108.5l233 80v49q0 166 -166 166q-149 0 -290 -154v199q106 125 305 125q149 0 239 -78
q30 -25 54 -66.5t30.5 -83t6.5 -157.5zM528 182v273l-122 -47q-93 -37 -131.5 -74.5t-38.5 -93.5q0 -57 36.5 -93t94.5 -36q87 0 161 71zM244 1366q39 0 67.5 -28t28.5 -68t-27 -67.5t-66 -27.5q-40 0 -68 28.5t-28 67.5q0 40 27.5 67.5t65.5 27.5zM629 1366q39 0 67.5 -28
t28.5 -68t-27 -67.5t-66 -27.5q-40 0 -68 28.5t-28 67.5q0 40 27.5 67.5t65.5 27.5z" />
    <glyph glyph-name="aring" unicode="&#xe5;" horiz-adv-x="874" 
d="M707 553v-391q0 -47 32 -47q33 0 103 49v-111q-62 -40 -99.5 -54.5t-78.5 -14.5q-117 0 -138 92q-116 -90 -247 -90q-96 0 -160 63.5t-64 159.5q0 87 62.5 155.5t177.5 108.5l233 80v49q0 166 -166 166q-149 0 -290 -154v199q106 125 305 125q149 0 239 -78
q30 -25 54 -66.5t30.5 -83t6.5 -157.5zM528 182v273l-122 -47q-93 -37 -131.5 -74.5t-38.5 -93.5q0 -57 36.5 -93t94.5 -36q87 0 161 71zM439 1497q77 0 132.5 -55t55.5 -134t-55.5 -135t-134.5 -56q-78 0 -133.5 55.5t-55.5 133.5q0 80 56.5 135.5t134.5 55.5zM434 1416
q-51 0 -81.5 -30.5t-30.5 -79.5q0 -48 33.5 -81.5t81.5 -33.5t82 33t34 80t-34 79.5t-85 32.5z" />
    <glyph glyph-name="ae" unicode="&#xe6;" horiz-adv-x="1366" 
d="M936 938q158 0 254 -112.5t96 -297.5v-28h-567q5 -135 43.5 -207.5t100.5 -109t143 -36.5q131 0 280 111v-178q-83 -55 -149.5 -75.5t-163.5 -20.5q-95 0 -181.5 39.5t-127.5 101.5q-179 -141 -345 -141q-110 0 -178.5 64.5t-68.5 168.5q0 77 47 138t144.5 103.5
t146.5 53.5l127 39v29q0 103 -34.5 145.5t-117.5 42.5q-157 0 -293 -152v220q77 56 144 79t151 23q181 0 277 -119q76 65 137.5 92t134.5 27zM741 616h363q-11 78 -56.5 121t-117.5 43q-137 0 -189 -164zM537 162v297l-99 -39q-100 -39 -143 -78t-43 -90q0 -60 38.5 -101.5
t92.5 -41.5q37 0 66 10.5t88 42.5z" />
    <glyph glyph-name="ccedilla" unicode="&#xe7;" horiz-adv-x="897" 
d="M538 -16l-5 -17q54 -13 84.5 -50t30.5 -84q0 -76 -61 -129.5t-195 -53.5q-37 0 -65 5v113q51 -4 64 -4q57 0 89 22q19 13 19 34q0 24 -20.5 40t-75.5 16q-11 0 -23 -3l44 123q-130 29 -238 136.5t-108 322.5q0 217 125 350t329 133q71 0 127.5 -13.5t139.5 -50.5v-194
q-138 88 -256 88q-123 0 -202 -86.5t-79 -220.5q0 -141 85.5 -224t230.5 -83q105 0 241 61v-180q-137 -51 -268 -51h-13z" />
    <glyph glyph-name="egrave" unicode="&#xe8;" horiz-adv-x="981" 
d="M913 444h-647q7 -132 88.5 -210t210.5 -78q180 0 332 112v-178q-84 -56 -166.5 -80t-193.5 -24q-152 0 -246 63t-150.5 169.5t-56.5 246.5q0 210 119 341.5t309 131.5q183 0 292 -128t109 -343v-23zM270 553h463q-7 109 -65 168t-156 59t-160.5 -59t-81.5 -168zM477 1419
l138 -300h-112l-230 300h204z" />
    <glyph glyph-name="eacute" unicode="&#xe9;" horiz-adv-x="981" 
d="M913 444h-647q7 -132 88.5 -210t210.5 -78q180 0 332 112v-178q-84 -56 -166.5 -80t-193.5 -24q-152 0 -246 63t-150.5 169.5t-56.5 246.5q0 210 119 341.5t309 131.5q183 0 292 -128t109 -343v-23zM270 553h463q-7 109 -65 168t-156 59t-160.5 -59t-81.5 -168zM716 1419
l-226 -300h-112l135 300h203z" />
    <glyph glyph-name="ecircumflex" unicode="&#xea;" horiz-adv-x="981" 
d="M913 444h-647q7 -132 88.5 -210t210.5 -78q180 0 332 112v-178q-84 -56 -166.5 -80t-193.5 -24q-152 0 -246 63t-150.5 169.5t-56.5 246.5q0 210 119 341.5t309 131.5q183 0 292 -128t109 -343v-23zM270 553h463q-7 109 -65 168t-156 59t-160.5 -59t-81.5 -168zM582 1427
l193 -309h-112l-179 177l-171 -177h-108l187 309h190z" />
    <glyph glyph-name="edieresis" unicode="&#xeb;" horiz-adv-x="981" 
d="M913 444h-647q7 -132 88.5 -210t210.5 -78q180 0 332 112v-178q-84 -56 -166.5 -80t-193.5 -24q-152 0 -246 63t-150.5 169.5t-56.5 246.5q0 210 119 341.5t309 131.5q183 0 292 -128t109 -343v-23zM270 553h463q-7 109 -65 168t-156 59t-160.5 -59t-81.5 -168zM297 1366
q39 0 67.5 -28t28.5 -68t-27 -67.5t-66 -27.5q-40 0 -68 28.5t-28 67.5q0 40 27.5 67.5t65.5 27.5zM682 1366q39 0 67.5 -28t28.5 -68t-27 -67.5t-66 -27.5q-40 0 -68 28.5t-28 67.5q0 40 27.5 67.5t65.5 27.5z" />
    <glyph glyph-name="igrave" unicode="&#xec;" horiz-adv-x="449" 
d="M133 920h182v-920h-182v920zM169 1419l138 -300h-112l-230 300h204z" />
    <glyph glyph-name="iacute" unicode="&#xed;" horiz-adv-x="449" 
d="M133 920h182v-920h-182v920zM524 1419l-226 -300h-112l135 300h203z" />
    <glyph glyph-name="icircumflex" unicode="&#xee;" horiz-adv-x="449" 
d="M133 920h182v-920h-182v920zM334 1427l193 -309h-112l-179 177l-171 -177h-108l187 309h190z" />
    <glyph glyph-name="idieresis" unicode="&#xef;" horiz-adv-x="449" 
d="M133 920h182v-920h-182v920zM33 1366q39 0 67.5 -28t28.5 -68t-27 -67.5t-66 -27.5q-40 0 -68 28.5t-28 67.5q0 40 27.5 67.5t65.5 27.5zM418 1366q39 0 67.5 -28t28.5 -68t-27 -67.5t-66 -27.5q-40 0 -68 28.5t-28 67.5q0 40 27.5 67.5t65.5 27.5z" />
    <glyph glyph-name="eth" unicode="&#xf0;" horiz-adv-x="1153" 
d="M270 1286l97 127q90 -28 132.5 -45.5t118.5 -58.5l224 104l49 -110l-154 -76q115 -98 167 -172t89 -155q84 -179 84 -376q0 -251 -136 -395.5t-372 -144.5q-207 0 -347 134.5t-140 334.5q0 209 143 347t359 138q64 0 105.5 -9t107.5 -38q-61 103 -99 145.5t-129 112.5
l-295 -137l-47 112l215 101q-85 42 -172 61zM897 463q0 138 -88 224.5t-229 86.5q-136 0 -229 -93t-93 -228q0 -133 92 -219.5t232 -86.5q143 0 229 86.5t86 229.5z" />
    <glyph glyph-name="ntilde" unicode="&#xf1;" 
d="M311 920v-117q122 135 277 135q86 0 160 -44.5t112.5 -122t38.5 -245.5v-526h-182v524q0 141 -43 201.5t-144 60.5q-129 0 -219 -129v-657h-186v920h186zM812 1397q-1 -121 -56 -189q-42 -53 -105 -53q-55 0 -148 40t-140 40q-26 0 -45 -20t-23 -60h-84q16 141 58 188.5
t106 47.5q58 0 189 -53q67 -27 96 -27q28 0 47.5 19.5t26.5 66.5h78z" />
    <glyph glyph-name="ograve" unicode="&#xf2;" horiz-adv-x="1130" 
d="M569 922q210 0 349 -135.5t139 -340.5q0 -199 -141 -330.5t-355 -131.5q-207 0 -346 133.5t-139 333.5q0 202 140.5 336.5t352.5 134.5zM559 758q-131 0 -215 -86t-84 -219q0 -132 86 -215.5t221 -83.5q134 0 219.5 84.5t85.5 216.5q0 131 -89 217t-224 86zM489 1419
l138 -300h-112l-230 300h204z" />
    <glyph glyph-name="oacute" unicode="&#xf3;" horiz-adv-x="1130" 
d="M569 922q210 0 349 -135.5t139 -340.5q0 -199 -141 -330.5t-355 -131.5q-207 0 -346 133.5t-139 333.5q0 202 140.5 336.5t352.5 134.5zM559 758q-131 0 -215 -86t-84 -219q0 -132 86 -215.5t221 -83.5q134 0 219.5 84.5t85.5 216.5q0 131 -89 217t-224 86zM771 1419
l-226 -300h-112l135 300h203z" />
    <glyph glyph-name="ocircumflex" unicode="&#xf4;" horiz-adv-x="1130" 
d="M569 922q210 0 349 -135.5t139 -340.5q0 -199 -141 -330.5t-355 -131.5q-207 0 -346 133.5t-139 333.5q0 202 140.5 336.5t352.5 134.5zM559 758q-131 0 -215 -86t-84 -219q0 -132 86 -215.5t221 -83.5q134 0 219.5 84.5t85.5 216.5q0 131 -89 217t-224 86zM641 1427
l193 -309h-112l-179 177l-171 -177h-108l187 309h190z" />
    <glyph glyph-name="otilde" unicode="&#xf5;" horiz-adv-x="1130" 
d="M569 922q210 0 349 -135.5t139 -340.5q0 -199 -141 -330.5t-355 -131.5q-207 0 -346 133.5t-139 333.5q0 202 140.5 336.5t352.5 134.5zM559 758q-131 0 -215 -86t-84 -219q0 -132 86 -215.5t221 -83.5q134 0 219.5 84.5t85.5 216.5q0 131 -89 217t-224 86zM888 1397
q-1 -121 -56 -189q-42 -53 -105 -53q-55 0 -148 40t-140 40q-26 0 -45 -20t-23 -60h-84q16 141 58 188.5t106 47.5q58 0 189 -53q67 -27 96 -27q28 0 47.5 19.5t26.5 66.5h78z" />
    <glyph glyph-name="odieresis" unicode="&#xf6;" horiz-adv-x="1130" 
d="M569 922q210 0 349 -135.5t139 -340.5q0 -199 -141 -330.5t-355 -131.5q-207 0 -346 133.5t-139 333.5q0 202 140.5 336.5t352.5 134.5zM559 758q-131 0 -215 -86t-84 -219q0 -132 86 -215.5t221 -83.5q134 0 219.5 84.5t85.5 216.5q0 131 -89 217t-224 86zM344 1366
q39 0 67.5 -28t28.5 -68t-27 -67.5t-66 -27.5q-40 0 -68 28.5t-28 67.5q0 40 27.5 67.5t65.5 27.5zM729 1366q39 0 67.5 -28t28.5 -68t-27 -67.5t-66 -27.5q-40 0 -68 28.5t-28 67.5q0 40 27.5 67.5t65.5 27.5z" />
    <glyph glyph-name="divide" unicode="&#xf7;" horiz-adv-x="1196" 
d="M604 1131q45 0 76.5 -31.5t31.5 -76.5t-31.5 -77t-76.5 -32t-77 32t-32 77t31.5 76.5t77.5 31.5zM1082 639h-968v168h968v-168zM605 529q45 0 76.5 -32t31.5 -77t-31.5 -77t-76.5 -32t-77 32t-32 77t31.5 77t77.5 32z" />
    <glyph glyph-name="oslash" unicode="&#xf8;" horiz-adv-x="1130" 
d="M848 856l94 113l68 -62l-90 -106q139 -155 139 -346q0 -206 -142.5 -338.5t-363.5 -132.5q-146 0 -270 73l-115 -131l-68 62l111 127q-139 142 -139 344q0 205 140.5 342t352.5 137q154 0 283 -82zM805 670l-410 -480q72 -49 168 -49q135 0 227.5 91.5t92.5 224.5
q0 64 -17 110t-61 103zM326 248l407 477q-83 49 -168 49q-135 0 -226 -92t-91 -229q0 -117 78 -205z" />
    <glyph glyph-name="ugrave" unicode="&#xf9;" 
d="M715 0v117q-58 -63 -132.5 -98t-148.5 -35q-87 0 -160.5 43.5t-111 118t-37.5 247.5v527h182v-525q0 -145 41.5 -202.5t145.5 -57.5q130 0 221 127v658h182v-920h-182zM497 1419l138 -300h-112l-230 300h204z" />
    <glyph glyph-name="uacute" unicode="&#xfa;" 
d="M715 0v117q-58 -63 -132.5 -98t-148.5 -35q-87 0 -160.5 43.5t-111 118t-37.5 247.5v527h182v-525q0 -145 41.5 -202.5t145.5 -57.5q130 0 221 127v658h182v-920h-182zM736 1419l-226 -300h-112l135 300h203z" />
    <glyph glyph-name="ucircumflex" unicode="&#xfb;" 
d="M715 0v117q-58 -63 -132.5 -98t-148.5 -35q-87 0 -160.5 43.5t-111 118t-37.5 247.5v527h182v-525q0 -145 41.5 -202.5t145.5 -57.5q130 0 221 127v658h182v-920h-182zM603 1427l193 -309h-112l-179 177l-171 -177h-108l187 309h190z" />
    <glyph glyph-name="udieresis" unicode="&#xfc;" 
d="M715 0v117q-58 -63 -132.5 -98t-148.5 -35q-87 0 -160.5 43.5t-111 118t-37.5 247.5v527h182v-525q0 -145 41.5 -202.5t145.5 -57.5q130 0 221 127v658h182v-920h-182zM318 1366q39 0 67.5 -28t28.5 -68t-27 -67.5t-66 -27.5q-40 0 -68 28.5t-28 67.5q0 40 27.5 67.5
t65.5 27.5zM703 1366q39 0 67.5 -28t28.5 -68t-27 -67.5t-66 -27.5q-40 0 -68 28.5t-28 67.5q0 40 27.5 67.5t65.5 27.5z" />
    <glyph glyph-name="yacute" unicode="&#xfd;" horiz-adv-x="897" 
d="M692 920h205l-651 -1389h-203l313 666l-356 723h207l248 -519zM672 1419l-226 -300h-112l135 300h203z" />
    <glyph glyph-name="thorn" unicode="&#xfe;" 
d="M117 -469v1866h186v-477h133q245 0 381.5 -122t136.5 -341q0 -207 -128.5 -340t-327.5 -133q-88 0 -195 39v-492h-186zM432 750h-129v-566q84 -43 176 -43q128 0 209.5 89t81.5 229q0 90 -38.5 159t-105 100.5t-194.5 31.5z" />
    <glyph glyph-name="ydieresis" unicode="&#xff;" horiz-adv-x="897" 
d="M692 920h205l-651 -1389h-203l313 666l-356 723h207l248 -519zM254 1366q39 0 67.5 -28t28.5 -68t-27 -67.5t-66 -27.5q-40 0 -68 28.5t-28 67.5q0 40 27.5 67.5t65.5 27.5zM639 1366q39 0 67.5 -28t28.5 -68t-27 -67.5t-66 -27.5q-40 0 -68 28.5t-28 67.5
q0 40 27.5 67.5t65.5 27.5z" />
    <glyph glyph-name="Aogonek" unicode="&#x104;" horiz-adv-x="1366" 
d="M1427 -334q-44 -18 -77.5 -24.5t-71.5 -6.5q-45 0 -83 14.5t-65.5 40.5t-43 61t-15.5 77q0 48 21 97t63 87l-180 400h-594l-176 -412h-205l600 1405h141l625 -1405h-86q-26 -31 -39.5 -61t-13.5 -64q0 -19 5.5 -36t18 -30t32.5 -20.5t48 -7.5q51 0 96 22v-137zM459 592
h434l-225 506z" />
    <glyph glyph-name="aogonek" unicode="&#x105;" horiz-adv-x="874" 
d="M842 -334q-45 -18 -78.5 -24.5t-71.5 -6.5q-45 0 -83 14.5t-65.5 40.5t-43 61t-15.5 77q0 46 20 94t60 86q-15 13 -24.5 29t-14.5 39q-60 -48 -122 -71t-125 -23q-51 0 -92.5 18.5t-71.5 49.5t-46 71.5t-16 85.5q0 68 28 114.5t73 79t101 55t112 42.5l161 57v49
q0 87 -41 124.5t-125 37.5q-75 0 -149.5 -36.5t-140.5 -115.5v199q107 125 305 125q70 0 131 -18t106 -55t71 -94.5t26 -135.5v-473q0 -26 8.5 -36.5t25.5 -10.5q14 0 40 13t57 36v-111q-29 -19 -51 -32t-41 -21t-35.5 -12.5t-34.5 -5.5q-39 -48 -39 -107q0 -38 24 -66
t80 -28q52 0 97 22v-137zM528 455q-58 -20 -110.5 -41t-92.5 -46t-63.5 -56t-23.5 -72q0 -28 10 -52t27 -41t41.5 -26.5t52.5 -9.5q43 0 82.5 20t76.5 55v269z" />
    <glyph glyph-name="Cacute" unicode="&#x106;" horiz-adv-x="1450" 
d="M1358 324v-220q-220 -120 -508 -120q-234 0 -397 94t-258 259t-95 357q0 305 217.5 513t536.5 208q220 0 489 -115v-215q-245 140 -479 140q-240 0 -398.5 -151.5t-158.5 -379.5q0 -230 156 -378t399 -148q254 0 496 156zM1066 1896l-226 -300h-112l135 300h203z" />
    <glyph glyph-name="cacute" unicode="&#x107;" horiz-adv-x="897" 
d="M819 215v-180q-137 -51 -268 -51q-216 0 -344.5 128t-128.5 343q0 217 125 350t329 133q71 0 127.5 -13.5t139.5 -50.5v-194q-138 88 -256 88q-123 0 -202 -86.5t-79 -220.5q0 -141 85.5 -224t230.5 -83q105 0 241 61zM759 1419l-226 -300h-112l135 300h203z" />
    <glyph glyph-name="Eogonek" unicode="&#x118;" 
d="M926 -334q-45 -18 -78.5 -24.5t-71.5 -6.5q-45 0 -83 14.5t-65.5 40.5t-43 61t-15.5 77q0 45 17.5 90t52.5 82h-485v1397h792v-180h-592v-422h572v-181h-572v-434h611v-180h-187q-26 -31 -39.5 -61t-13.5 -64q0 -38 24 -66t80 -28q52 0 97 22v-137z" />
    <glyph glyph-name="eogonek" unicode="&#x119;" horiz-adv-x="981" 
d="M897 -334q-44 -18 -77.5 -24.5t-71.5 -6.5q-45 0 -83 14.5t-65.5 40.5t-43 61t-15.5 77q0 40 14 80.5t43 75.5q-17 -2 -34 -2h-34q-107 0 -190 40.5t-140 108.5t-86.5 156.5t-29.5 183.5q0 105 31.5 191t88.5 147.5t136 95t174 33.5q92 0 165.5 -31.5t125.5 -94.5
t80 -158t28 -222h-647q44 -276 309 -276q85 0 163 29t159 81v-176q-34 -23 -67 -41t-68 -31q-31 -34 -48.5 -71t-17.5 -72q0 -38 24 -66t81 -28q51 0 96 22v-137zM733 553q-4 105 -61 166t-154 61q-106 0 -167.5 -59t-80.5 -168h463z" />
    <glyph glyph-name="dotlessi" unicode="&#x131;" horiz-adv-x="449" 
d="M133 920h182v-920h-182v920z" />
    <glyph glyph-name="Lslash" unicode="&#x141;" horiz-adv-x="1004" 
d="M635 918l-283 -234v-504h631v-180h-831v539l-183 -150v180l183 150v678h200v-533l283 234v-180z" />
    <glyph glyph-name="lslash" unicode="&#x142;" horiz-adv-x="449" 
d="M477 827l-162 -131v-696h-182v565l-162 -131v160l162 131v672h182v-541l162 131v-160z" />
    <glyph glyph-name="Nacute" unicode="&#x143;" horiz-adv-x="1599" 
d="M1264 1397h190v-1397h-172l-934 1075v-1075h-188v1397h162l942 -1084v1084zM1008 1870l-226 -300h-112l135 300h203z" />
    <glyph glyph-name="nacute" unicode="&#x144;" 
d="M311 920v-117q122 135 277 135q86 0 160 -44.5t112.5 -122t38.5 -245.5v-526h-182v524q0 141 -43 201.5t-144 60.5q-129 0 -219 -129v-657h-186v920h186zM761 1419l-226 -300h-112l135 300h203z" />
    <glyph glyph-name="OE" unicode="&#x152;" horiz-adv-x="1878" 
d="M887 1397h905v-178h-571v-422h551v-179h-551v-438h594v-178h-861q-230 0 -373.5 47t-259.5 147q-225 194 -225 496q0 315 219 510t572 195zM881 174h139v1049h-78q-232 0 -362 -71t-201.5 -191t-71.5 -263q0 -224 164 -374t410 -150z" />
    <glyph glyph-name="oe" unicode="&#x153;" horiz-adv-x="1706" 
d="M1278 938q150 0 248 -105q49 -53 75.5 -126t32.5 -207h-577v-23q0 -163 81 -245t205 -82q143 0 291 114v-184q-87 -54 -156.5 -74t-174.5 -20q-234 0 -342 178q-147 -180 -402 -180q-207 0 -347 136.5t-140 338.5q0 205 143 342t358 137q242 0 388 -190q55 91 138 140.5
t179 49.5zM1075 618h377q-35 162 -180 162q-71 0 -122.5 -42.5t-74.5 -119.5zM567 760q-132 0 -218.5 -87t-86.5 -220q0 -127 87.5 -211t219.5 -84t215.5 84t83.5 217q0 130 -85.5 215.5t-215.5 85.5z" />
    <glyph glyph-name="Sacute" unicode="&#x15a;" horiz-adv-x="938" 
d="M500 586l-152 92q-143 87 -203.5 171.5t-60.5 194.5q0 165 114.5 268t297.5 103q175 0 321 -98v-227q-151 145 -325 145q-98 0 -161 -45.5t-63 -116.5q0 -63 46 -118t149 -115l153 -90q256 -152 256 -388q0 -168 -112.5 -273t-292.5 -105q-207 0 -377 127v254
q162 -205 375 -205q94 0 156.5 52.5t62.5 131.5q0 128 -184 242zM707 1870l-226 -300h-112l135 300h203z" />
    <glyph glyph-name="sacute" unicode="&#x15b;" horiz-adv-x="788" 
d="M84 66v196q77 -54 157.5 -87.5t135.5 -33.5q57 0 98 28t41 67q0 40 -26.5 66.5t-114.5 76.5q-176 98 -230.5 167.5t-54.5 151.5q0 106 82.5 173t212.5 67q135 0 277 -76v-180q-162 98 -265 98q-53 0 -85.5 -22.5t-32.5 -59.5q0 -32 29.5 -61t103.5 -70l65 -37
q230 -130 230 -288q0 -113 -88.5 -185.5t-227.5 -72.5q-82 0 -146 17.5t-161 64.5zM603 1419l-226 -300h-112l135 300h203z" />
    <glyph glyph-name="Scaron" unicode="&#x160;" horiz-adv-x="938" 
d="M500 586l-152 92q-143 87 -203.5 171.5t-60.5 194.5q0 165 114.5 268t297.5 103q175 0 321 -98v-227q-151 145 -325 145q-98 0 -161 -45.5t-63 -116.5q0 -63 46 -118t149 -115l153 -90q256 -152 256 -388q0 -168 -112.5 -273t-292.5 -105q-207 0 -377 127v254
q162 -205 375 -205q94 0 156.5 52.5t62.5 131.5q0 128 -184 242zM791 1809l-227 -309h-189l-224 309h114l206 -173l206 173h114z" />
    <glyph glyph-name="scaron" unicode="&#x161;" horiz-adv-x="788" 
d="M84 66v196q77 -54 157.5 -87.5t135.5 -33.5q57 0 98 28t41 67q0 40 -26.5 66.5t-114.5 76.5q-176 98 -230.5 167.5t-54.5 151.5q0 106 82.5 173t212.5 67q135 0 277 -76v-180q-162 98 -265 98q-53 0 -85.5 -22.5t-32.5 -59.5q0 -32 29.5 -61t103.5 -70l65 -37
q230 -130 230 -288q0 -113 -88.5 -185.5t-227.5 -72.5q-82 0 -146 17.5t-161 64.5zM715 1427l-227 -309h-189l-224 309h114l206 -173l206 173h114z" />
    <glyph glyph-name="Ydieresis" unicode="&#x178;" horiz-adv-x="1237" 
d="M995 1397h242l-516 -658v-739h-205v739l-516 658h242l374 -482zM400 1706q39 0 67.5 -28t28.5 -68t-27 -67.5t-66 -27.5q-40 0 -68 28.5t-28 67.5q0 40 27.5 67.5t65.5 27.5zM785 1706q39 0 67.5 -28t28.5 -68t-27 -67.5t-66 -27.5q-40 0 -68 28.5t-28 67.5
q0 40 27.5 67.5t65.5 27.5z" />
    <glyph glyph-name="Zacute" unicode="&#x179;" horiz-adv-x="1323" 
d="M82 1399h1204l-893 -1221h893v-178h-1261l895 1221h-838v178zM869 1870l-226 -300h-112l135 300h203z" />
    <glyph glyph-name="zacute" unicode="&#x17a;" horiz-adv-x="854" 
d="M43 920h786l-487 -750h487v-170h-806l483 750h-463v170zM636 1419l-226 -300h-112l135 300h203z" />
    <glyph glyph-name="Zdotaccent" unicode="&#x17b;" horiz-adv-x="1323" 
d="M82 1399h1204l-893 -1221h893v-178h-1261l895 1221h-838v178zM661 1807q51 0 87 -35t36 -86q0 -50 -35.5 -84t-87.5 -34q-51 0 -86 34t-35 84q0 51 35 86t86 35z" />
    <glyph glyph-name="zdotaccent" unicode="&#x17c;" horiz-adv-x="854" 
d="M43 920h786l-487 -750h487v-170h-806l483 750h-463v170zM428 1356q51 0 87 -35t36 -86q0 -50 -35.5 -84t-87.5 -34q-51 0 -86 34t-35 84q0 51 35 86t86 35z" />
    <glyph glyph-name="Zcaron" unicode="&#x17d;" horiz-adv-x="1323" 
d="M82 1399h1204l-893 -1221h893v-178h-1261l895 1221h-838v178zM981 1809l-227 -309h-189l-224 309h114l206 -173l206 173h114z" />
    <glyph glyph-name="zcaron" unicode="&#x17e;" horiz-adv-x="854" 
d="M43 920h786l-487 -750h487v-170h-806l483 750h-463v170zM748 1427l-227 -309h-189l-224 309h114l206 -173l206 173h114z" />
    <glyph glyph-name="florin" unicode="&#x192;" horiz-adv-x="1130" 
d="M721 922l-191 -1090q-24 -140 -84 -200t-176 -60q-102 0 -223 25l35 155q99 -22 151 -22q59 0 85.5 32t41.5 121l179 1039h-201l22 139h203l25 135q23 145 71 209q76 90 218 90q40 0 118 -20l72 -17l18 -4l-34 -154q-108 25 -154 25q-63 0 -88.5 -31.5t-42.5 -128.5
l-18 -104h202l-24 -139h-205z" />
    <glyph glyph-name="circumflex" unicode="&#x2c6;" horiz-adv-x="683" 
d="M433 1427l193 -309h-112l-179 177l-171 -177h-108l187 309h190z" />
    <glyph glyph-name="caron" unicode="&#x2c7;" horiz-adv-x="683" 
d="M662 1427l-227 -309h-189l-224 309h114l206 -173l206 173h114z" />
    <glyph glyph-name="firsttonechinese" unicode="&#x2c9;" horiz-adv-x="683" 
d="M680 1339v-149h-677v149h677z" />
    <glyph glyph-name="breve" unicode="&#x2d8;" horiz-adv-x="683" 
d="M631 1397q-24 -132 -99.5 -198t-191.5 -66q-110 0 -188 68.5t-101 195.5h137q16 -65 55 -96t102 -31q58 0 94.5 29.5t52.5 97.5h139z" />
    <glyph glyph-name="dotaccent" unicode="&#x2d9;" horiz-adv-x="683" 
d="M342 1356q51 0 87 -35t36 -86q0 -50 -35.5 -84t-87.5 -34q-51 0 -86 34t-35 84q0 51 35 86t86 35z" />
    <glyph glyph-name="ring" unicode="&#x2da;" horiz-adv-x="683" 
d="M343 1497q77 0 132.5 -55t55.5 -134t-55.5 -135t-134.5 -56q-78 0 -133.5 55.5t-55.5 133.5q0 80 56.5 135.5t134.5 55.5zM338 1416q-51 0 -81.5 -30.5t-30.5 -79.5q0 -48 33.5 -81.5t81.5 -33.5t82 33t34 80t-34 79.5t-85 32.5z" />
    <glyph glyph-name="ogonek" unicode="&#x2db;" horiz-adv-x="683" 
d="M545 -196v-137q-71 -31 -138 -31q-102 0 -160.5 54t-58.5 135q0 98 92 194h136q-72 -98 -72 -144q0 -36 29.5 -64.5t67.5 -28.5q27 0 104 22z" />
    <glyph glyph-name="tilde" unicode="&#x2dc;" horiz-adv-x="683" 
d="M642 1397q-1 -121 -56 -189q-42 -53 -105 -53q-55 0 -148 40t-140 40q-26 0 -45 -20t-23 -60h-84q16 141 58 188.5t106 47.5q58 0 189 -53q67 -27 96 -27q28 0 47.5 19.5t26.5 66.5h78z" />
    <glyph glyph-name="hungarumlaut" unicode="&#x2dd;" horiz-adv-x="683" 
d="M353 1422l-239 -300h-111l143 300h207zM680 1422l-237 -300h-113l145 300h205z" />
    <glyph glyph-name="gravecmb" unicode="&#x300;" horiz-adv-x="0" 
d="M-530 1419l138 -300h-112l-230 300h204z" />
    <glyph glyph-name="acutecmb" unicode="&#x301;" horiz-adv-x="0" 
d="M-394 1419l-226 -300h-112l135 300h203z" />
    <glyph glyph-name="circumflexcmb" unicode="&#x302;" horiz-adv-x="0" 
d="M-471 1427l193 -309h-112l-179 177l-171 -177h-108l187 309h190z" />
    <glyph glyph-name="tildecmb" unicode="&#x303;" horiz-adv-x="0" 
d="M-262 1397q-1 -121 -56 -189q-42 -53 -105 -53q-55 0 -148 40t-140 40q-26 0 -45 -20t-23 -60h-84q16 141 58 188.5t106 47.5q58 0 189 -53q67 -27 96 -27q28 0 47.5 19.5t26.5 66.5h78z" />
    <glyph glyph-name="macroncmb" unicode="&#x304;" horiz-adv-x="0" 
d="M-1163 1496v132h1200v-132h-1200z" />
    <glyph glyph-name="brevecmb" unicode="&#x306;" horiz-adv-x="0" 
d="M-273 1397q-24 -132 -99.5 -198t-191.5 -66q-110 0 -188 68.5t-101 195.5h137q16 -65 55 -96t102 -31q58 0 94.5 29.5t52.5 97.5h139z" />
    <glyph glyph-name="dotaccentcmb" unicode="&#x307;" horiz-adv-x="0" 
d="M-564 1356q51 0 87 -35t36 -86q0 -50 -35.5 -84t-87.5 -34q-51 0 -86 34t-35 84q0 51 35 86t86 35z" />
    <glyph glyph-name="dieresiscmb" unicode="&#x308;" horiz-adv-x="0" 
d="M-757 1366q39 0 67.5 -28t28.5 -68t-27 -67.5t-66 -27.5q-40 0 -68 28.5t-28 67.5q0 40 27.5 67.5t65.5 27.5zM-372 1366q39 0 67.5 -28t28.5 -68t-27 -67.5t-66 -27.5q-40 0 -68 28.5t-28 67.5q0 40 27.5 67.5t65.5 27.5z" />
    <glyph glyph-name="ringcmb" unicode="&#x30a;" horiz-adv-x="0" 
d="M-561 1497q77 0 132.5 -55t55.5 -134t-55.5 -135t-134.5 -56q-78 0 -133.5 55.5t-55.5 133.5q0 80 56.5 135.5t134.5 55.5zM-566 1416q-51 0 -81.5 -30.5t-30.5 -79.5q0 -48 33.5 -81.5t81.5 -33.5t82 33t34 80t-34 79.5t-85 32.5z" />
    <glyph glyph-name="hungarumlautcmb" unicode="&#x30b;" horiz-adv-x="0" 
d="M-551 1422l-239 -300h-111l143 300h207zM-224 1422l-237 -300h-113l145 300h205z" />
    <glyph glyph-name="caroncmb" unicode="&#x30c;" horiz-adv-x="0" 
d="M-243 1427l-227 -309h-189l-224 309h114l206 -173l206 173h114z" />
    <glyph glyph-name="cedillacmb" unicode="&#x327;" horiz-adv-x="0" 
d="M-502 16l-15 -49q54 -13 84.5 -50t30.5 -84q0 -76 -61 -129.5t-195 -53.5q-37 0 -65 5v113q51 -4 64 -4q57 0 89 22q19 13 19 34q0 24 -20.5 40t-75.5 16q-11 0 -23 -3l51 143h117z" />
    <glyph glyph-name="ogonekcmb" unicode="&#x328;" horiz-adv-x="0" 
d="M-384 -196v-137q-71 -31 -138 -31q-102 0 -160.5 54t-58.5 135q0 98 92 194h136q-72 -98 -72 -144q0 -36 29.5 -64.5t67.5 -28.5q27 0 104 22z" />
    <glyph glyph-name="soliduslongoverlaycmb" unicode="&#x338;" horiz-adv-x="0" 
d="M-836 -18l402 1434h144l-401 -1434h-145z" />
    <glyph glyph-name="afii10023" unicode="&#x401;" 
d="M946 1397v-180h-592v-422h572v-181h-572v-434h611v-180h-811v1397h792zM373 1765q40 0 67 -27t27 -67t-27 -68t-67 -28q-42 0 -69.5 28t-27.5 68t27.5 67t69.5 27zM754 1765q40 0 67 -27t27 -67t-27 -68t-67 -28q-42 0 -69.5 28t-27.5 68t27.5 67t69.5 27z" />
    <glyph glyph-name="afii10051" unicode="&#x402;" horiz-adv-x="1522" 
d="M1202 1397v-180h-483v-476q18 32 51.5 64.5t77.5 58.5t97 42t110 16q88 0 163.5 -32t131 -89t87 -134.5t31.5 -168.5q0 -119 -40.5 -212t-109 -156.5t-157 -96.5t-184.5 -33h-49v164h69q54 0 103 24t86.5 66.5t59.5 99.5t22 123q0 65 -20 114.5t-54.5 82.5t-80.5 50
t-97 17q-67 0 -121.5 -22t-93.5 -61t-60.5 -92.5t-21.5 -116.5v-449h-201v1217h-483v180h1167z" />
    <glyph glyph-name="afii10052" unicode="&#x403;" horiz-adv-x="971" 
d="M946 1397v-180h-592v-1217h-200v1397h792zM643 1864h248l-277 -363h-135z" />
    <glyph glyph-name="afii10053" unicode="&#x404;" horiz-adv-x="1450" 
d="M1339 1085q-65 38 -125.5 65.5t-119 45.5t-117 26.5t-119.5 8.5q-107 0 -200 -32t-165 -90t-119.5 -138t-64.5 -176h719v-181h-721q14 -100 60 -183t119 -141.5t169.5 -91t210.5 -32.5q120 0 244 40t244 118v-220q-51 -27 -106 -49.5t-116.5 -38.5t-132 -25t-151.5 -9
q-131 0 -238 31t-190.5 84t-145 123t-101.5 147.5t-59.5 157.5t-19.5 153q0 106 26 202.5t74 178t116.5 147.5t153.5 112.5t185 71.5t211 25q54 0 109 -6.5t113.5 -21t122 -36t134.5 -51.5v-215z" />
    <glyph glyph-name="afii10054" unicode="&#x405;" horiz-adv-x="938" 
d="M90 365q78 -100 172 -151.5t197 -51.5q59 0 101.5 16.5t70.5 42t41.5 57t13.5 60.5q0 54 -26 97.5t-68.5 80.5t-96.5 70.5t-111 68t-111 72.5t-96.5 84t-68.5 102.5t-26 128.5q0 86 30 154.5t85.5 117.5t134 75t174.5 26q162 0 311 -98v-227q-45 42 -88.5 70t-84.5 44.5
t-80 23.5t-75 7q-48 0 -89 -12t-70 -34t-45.5 -52.5t-16.5 -67.5q0 -50 26 -89t68.5 -72t96.5 -63.5t111 -63.5t111 -71.5t96.5 -88.5t68.5 -114t26 -147q0 -82 -29.5 -151.5t-81.5 -119.5t-123.5 -78.5t-156.5 -28.5q-114 0 -208.5 31.5t-182.5 97.5v254z" />
    <glyph glyph-name="afii10055" unicode="&#x406;" horiz-adv-x="512" 
d="M356 1397v-1397h-200v1397h200z" />
    <glyph glyph-name="afii10056" unicode="&#x407;" horiz-adv-x="512" 
d="M356 1397v-1397h-200v1397h200zM61 1763q42 0 68.5 -27t26.5 -67t-26.5 -68t-68.5 -28q-40 0 -68 28t-28 68t28 67t68 27zM442 1763q42 0 68.5 -27t26.5 -67t-26.5 -68t-68.5 -28q-40 0 -68 28t-28 68t28 67t68 27z" />
    <glyph glyph-name="afii10057" unicode="&#x408;" horiz-adv-x="512" 
d="M356 1397v-1413q0 -98 -20.5 -181t-66.5 -144t-119.5 -95.5t-178.5 -34.5q-18 0 -32 1t-29 3l-37 186h51q80 0 126 20t69.5 60.5t30 101.5t6.5 142v1354h200z" />
    <glyph glyph-name="afii10058" unicode="&#x409;" horiz-adv-x="1739" 
d="M698 1407l232 -598h258q121 0 213.5 -33t155 -88.5t94.5 -129.5t32 -157q0 -77 -29.5 -146t-86 -122.5t-137.5 -88t-183 -42.5v-2h-205l-417 1100l-412 -1100h-201l545 1407h141zM1221 180q68 0 116.5 19t79.5 49.5t45.5 68.5t14.5 76q0 52 -19 95.5t-53 74.5t-81 48.5
t-103 17.5h-222l175 -449h47z" />
    <glyph glyph-name="afii10059" unicode="&#x40a;" horiz-adv-x="2114" 
d="M1563 788q121 0 213.5 -29.5t155 -81.5t94.5 -122.5t32 -153.5t-33.5 -156t-96.5 -127.5t-154 -86t-205 -31.5h-432v608h-783v-608h-200v1397h200v-609h783v609h200v-609h226zM1337 608v-428h258q69 0 117.5 19t79 49.5t45 68.5t14.5 76q0 52 -19 92t-53 67.5t-81 41.5
t-103 14h-258z" />
    <glyph glyph-name="afii10060" unicode="&#x40b;" horiz-adv-x="1634" 
d="M719 0h-201v1217h-483v180h1184v-180h-500v-351q21 12 55 25t75 23.5t85 17t84 6.5q155 0 258 -33t164.5 -99.5t86.5 -167t25 -235.5v-403h-200v422q0 107 -20.5 172.5t-61.5 102t-102.5 49t-143.5 12.5q-85 0 -163.5 -17t-141.5 -45v-696z" />
    <glyph glyph-name="afii10061" unicode="&#x40c;" horiz-adv-x="1217" 
d="M670 1800h248l-277 -362h-135zM154 1397h200v-568q57 0 101.5 9.5t81 36.5t67.5 75.5t62 126.5q37 93 76.5 154.5t87 98.5t105.5 52t132 15h31v-180q-68 0 -111 -12.5t-72 -40t-49.5 -71t-42.5 -104.5q-13 -37 -34 -75t-46.5 -71t-54 -59t-57.5 -39q52 -24 89.5 -49
t70 -60.5t65 -85.5t74.5 -124l246 -426h-228l-217 377q-51 89 -92 145t-82.5 88t-89.5 44t-113 12v-666h-200v1397z" />
    <glyph glyph-name="afii10062" unicode="&#x40e;" horiz-adv-x="1348" 
d="M219 1397l502 -1168l412 1168h196l-520 -1397q-32 -84 -67.5 -144.5t-77.5 -98.5t-92 -56t-111 -18q-54 0 -98 13.5t-78 35.5v180q34 -35 77.5 -50.5t106.5 -15.5q21 0 47.5 10.5t50.5 30.5t42 48.5t22 64.5l-613 1397h201zM537 1767q30 -127 157 -127q60 0 95 30.5
t51 96.5h139q-23 -129 -96.5 -196.5t-190.5 -67.5q-118 0 -194 67.5t-99 196.5h138z" />
    <glyph glyph-name="afii10145" unicode="&#x40f;" horiz-adv-x="1493" 
d="M1337 1397v-1397h-456v-256h-201v256h-526v1397h200v-1217h783v1217h200z" />
    <glyph glyph-name="afii10017" unicode="&#x410;" horiz-adv-x="1366" 
d="M741 1405l625 -1405h-205l-186 412h-594l-176 -412h-205l600 1405h141zM668 1098l-209 -506h434z" />
    <glyph glyph-name="afii10018" unicode="&#x411;" horiz-adv-x="1202" 
d="M154 0v1397h890v-180h-690v-379h283q111 0 203 -28.5t158.5 -82.5t103.5 -132t37 -177q0 -98 -37 -175.5t-103.5 -131.5t-158.5 -82.5t-203 -28.5h-483zM354 657v-477h308q62 0 112 19t85 51.5t54 76t19 91.5q0 115 -77.5 177t-233.5 62h-267z" />
    <glyph glyph-name="afii10019" unicode="&#x412;" horiz-adv-x="1153" 
d="M154 0v1397h405q113 0 194 -31t133.5 -81t77.5 -114.5t25 -130.5q0 -109 -51 -181.5t-162 -117.5v-4q78 -15 140.5 -47t106 -79t66.5 -107t23 -131q0 -64 -25.5 -130.5t-82.5 -120.5t-148.5 -88t-222.5 -34h-479zM354 1217v-418h133q151 0 223 54.5t72 168.5
q0 39 -12 74.5t-40.5 62t-75 42.5t-115.5 16h-185zM354 618v-438h252q89 0 146.5 20t91.5 51.5t47.5 71t13.5 78.5q0 48 -18.5 87.5t-57 68.5t-96.5 45t-137 16h-242z" />
    <glyph glyph-name="afii10020" unicode="&#x413;" horiz-adv-x="971" 
d="M946 1397v-180h-592v-1217h-200v1397h792z" />
    <glyph glyph-name="afii10021" unicode="&#x414;" horiz-adv-x="1372" 
d="M1352 180v-436h-205v256h-922v-256h-205v436h123l461 1225h141l484 -1225h123zM672 1112l-328 -932h682z" />
    <glyph glyph-name="afii10022" unicode="&#x415;" 
d="M946 1397v-180h-592v-422h572v-181h-572v-434h611v-180h-811v1397h792z" />
    <glyph glyph-name="afii10024" unicode="&#x416;" horiz-adv-x="1835" 
d="M152 1397q74 0 132 -15t105.5 -52t87 -98.5t76.5 -154.5q31 -78 61.5 -126.5t62.5 -75.5t66.5 -36.5t73.5 -9.5v568h201v-568q39 0 73.5 9.5t66.5 36.5t62.5 75.5t61.5 126.5q37 93 76.5 154.5t87 98.5t105.5 52t132 15h31v-180q-67 0 -110.5 -12.5t-73 -40t-49.5 -70.5
t-41 -105q-13 -38 -35.5 -76t-51 -71t-60.5 -59.5t-64 -41.5q43 -15 75 -33.5t60 -45.5t55 -64t60 -90l315 -508h-231l-252 426q-36 62 -70 107t-69 74.5t-72.5 44t-81.5 14.5v-666h-201v666q-44 0 -82 -15t-73.5 -45t-69 -75t-68.5 -105l-252 -426h-231l315 508
q56 90 115 146.5t135 86.5q-32 15 -64 41.5t-60.5 59.5t-51 71t-35.5 76q-21 62 -41.5 105t-49.5 70.5t-72.5 40t-110.5 12.5v180h31z" />
    <glyph glyph-name="afii10025" unicode="&#x417;" horiz-adv-x="1055" 
d="M223 618v179h262q59 0 108.5 20t85 52.5t55.5 73t20 81.5q0 53 -21 91t-57.5 62.5t-85.5 36t-105 11.5q-28 0 -70.5 -4.5t-91.5 -14.5t-100.5 -27t-97.5 -42v186q45 21 101.5 38t114.5 29t111.5 18.5t92.5 6.5q81 0 155 -20t130.5 -63.5t90 -112.5t33.5 -168
q0 -64 -21 -119t-55.5 -98t-79.5 -73.5t-93 -45.5q47 -15 93.5 -42.5t83.5 -69t60 -96.5t23 -124q0 -101 -40.5 -176.5t-107.5 -125.5t-153.5 -74.5t-178.5 -24.5q-36 0 -84.5 4.5t-100 14t-101 23.5t-86.5 33v217q81 -54 167 -78t164 -24q52 0 108.5 9t103.5 33.5
t77.5 67.5t30.5 111q0 42 -17 82.5t-56 72t-103 51t-158 19.5h-207z" />
    <glyph glyph-name="afii10026" unicode="&#x418;" horiz-adv-x="1493" 
d="M1137 1026l-887 -1044h-96v1415h200v-1063l885 1063h98v-1397h-200v1026z" />
    <glyph glyph-name="afii10027" unicode="&#x419;" horiz-adv-x="1493" 
d="M1137 1026l-887 -1044h-96v1415h200v-1063l885 1063h98v-1397h-200v1026zM588 1767q30 -127 157 -127q60 0 95 30.5t51 96.5h139q-23 -129 -96.5 -196.5t-190.5 -67.5q-118 0 -193.5 67.5t-98.5 196.5h137z" />
    <glyph glyph-name="afii10028" unicode="&#x41a;" horiz-adv-x="1217" 
d="M154 1397h200v-568q57 0 101.5 9.5t81 36.5t67.5 75.5t62 126.5q37 93 76.5 154.5t87 98.5t105.5 52t132 15h31v-180q-68 0 -111 -12.5t-72 -40t-49.5 -71t-42.5 -104.5q-13 -37 -34 -75t-46.5 -71t-54 -59t-57.5 -39q52 -24 89.5 -49t70 -60.5t65 -85.5t74.5 -124
l246 -426h-228l-217 377q-51 89 -92 145t-82.5 88t-89.5 44t-113 12v-666h-200v1397z" />
    <glyph glyph-name="afii10029" unicode="&#x41b;" horiz-adv-x="1366" 
d="M741 1405l625 -1405h-205l-493 1133l-463 -1133h-205l600 1405h141z" />
    <glyph glyph-name="afii10030" unicode="&#x41c;" horiz-adv-x="1599" 
d="M1452 1397v-1397h-201v1087h-4l-430 -540h-33l-430 540h-4v-1087h-200v1397h188l463 -574l465 574h186z" />
    <glyph glyph-name="afii10031" unicode="&#x41d;" horiz-adv-x="1493" 
d="M1337 1397v-1397h-200v608h-783v-608h-200v1397h200v-609h783v609h200z" />
    <glyph glyph-name="afii10032" unicode="&#x41e;" horiz-adv-x="1686" 
d="M92 698q0 145 53.5 275t151.5 228.5t236.5 156t308.5 57.5q173 0 312 -57.5t236.5 -155.5t150 -228t52.5 -276q0 -141 -51.5 -270.5t-148.5 -228.5t-237.5 -158t-317.5 -59q-114 0 -214 26.5t-182.5 74.5t-147.5 114.5t-110 146t-68.5 169.5t-23.5 185zM299 698
q0 -114 41 -211.5t113.5 -169t172 -111.5t216.5 -40t217 40t172.5 111.5t113.5 169t41 211.5q0 116 -41 213.5t-113.5 168.5t-172.5 111t-217 40t-216.5 -40t-172 -111t-113.5 -168.5t-41 -213.5z" />
    <glyph glyph-name="afii10033" unicode="&#x41f;" horiz-adv-x="1493" 
d="M1337 1397v-1397h-200v1217h-783v-1217h-200v1397h1183z" />
    <glyph glyph-name="afii10034" unicode="&#x420;" horiz-adv-x="1044" 
d="M143 1397h437q114 0 198 -31.5t138.5 -86t81 -128t26.5 -156.5q0 -82 -28 -153.5t-86 -124t-146.5 -83t-210.5 -30.5h-209v-604h-201v1397zM344 1217v-433h227q56 0 101.5 14.5t77.5 43t49.5 69.5t17.5 93q0 38 -11.5 76t-39 68.5t-73 49.5t-113.5 19h-236z" />
    <glyph glyph-name="afii10035" unicode="&#x421;" horiz-adv-x="1450" 
d="M1358 104q-51 -27 -106 -49.5t-116.5 -38.5t-132 -25t-151.5 -9q-131 0 -238 31t-190.5 84t-145 123t-101.5 147.5t-59.5 157.5t-19.5 153q0 106 26 202.5t74 178t116.5 147.5t153.5 112.5t185 71.5t211 25q54 0 109 -6.5t113.5 -21t122 -36t134.5 -51.5v-215
q-65 38 -125.5 65.5t-119 45.5t-117 26.5t-119.5 8.5q-120 0 -222 -40.5t-176.5 -111.5t-116.5 -169t-42 -214q0 -117 41 -214.5t115.5 -167.5t178.5 -109t230 -39q120 0 244 40t244 118v-220z" />
    <glyph glyph-name="afii10036" unicode="&#x422;" horiz-adv-x="1237" 
d="M1202 1397v-180h-483v-1217h-201v1217h-483v180h1167z" />
    <glyph glyph-name="afii10037" unicode="&#x423;" horiz-adv-x="1348" 
d="M219 1397l502 -1168l412 1168h196l-520 -1397q-32 -84 -67.5 -144.5t-77.5 -98.5t-92 -56t-111 -18q-54 0 -98 13.5t-78 35.5v180q34 -35 77.5 -50.5t106.5 -15.5q21 0 47.5 10.5t50.5 30.5t42 48.5t22 64.5l-613 1397h201z" />
    <glyph glyph-name="afii10038" unicode="&#x424;" horiz-adv-x="1686" 
d="M741 131q-134 0 -252.5 39.5t-206.5 113t-139 178.5t-51 236q0 138 51 244.5t139 180t206.5 111.5t252.5 38v143h201v-143q134 0 252.5 -38t207 -111.5t140 -180t51.5 -244.5q0 -131 -51.5 -236t-140 -178.5t-207 -113t-252.5 -39.5v-149h-201v149zM942 315
q92 0 172.5 23.5t141 70.5t95.5 119.5t35 169.5q0 101 -35 174t-95.5 121t-141 71t-172.5 23v-772zM741 1087q-91 0 -171.5 -23t-140.5 -71t-95 -121t-35 -172q0 -98 35 -170.5t95 -120t140.5 -71t171.5 -23.5v772z" />
    <glyph glyph-name="afii10039" unicode="&#x425;" horiz-adv-x="1450" 
d="M1407 1397l-557 -674l596 -723h-242l-475 578l-481 -578h-244l602 723l-559 674h244l438 -533l436 533h242z" />
    <glyph glyph-name="afii10040" unicode="&#x426;" horiz-adv-x="1532" 
d="M1337 1397v-1217h185v-436h-201v256h-1167v1397h200v-1217h783v1217h200z" />
    <glyph glyph-name="afii10041" unicode="&#x427;" horiz-adv-x="1272" 
d="M1116 1397v-1397h-201v584q-21 -12 -55 -24.5t-75 -23t-84.5 -17.5t-84.5 -7q-154 0 -257 33t-164.5 99.5t-87 167t-25.5 235.5v350h201v-369q0 -106 20.5 -172t61 -102.5t102 -49t143.5 -12.5q85 0 164.5 17t140.5 45v643h201z" />
    <glyph glyph-name="afii10042" unicode="&#x428;" horiz-adv-x="1886" 
d="M840 180l6 -6v1223h201v-1217h485v1217h201v-1397h-1579v1397h200v-1217h486z" />
    <glyph glyph-name="afii10043" unicode="&#x429;" horiz-adv-x="1927" 
d="M840 180l6 -6v1223h201v-1217h485v1217h201v-1217h184v-436h-201v256h-1562v1397h200v-1217h486z" />
    <glyph glyph-name="afii10044" unicode="&#x42a;" horiz-adv-x="1276" 
d="M741 809q122 0 212 -33t149.5 -88.5t89 -129.5t29.5 -157t-31 -156t-91 -127.5t-148.5 -86t-202.5 -31.5h-433v1227h-315v170h516v-588h225zM516 629v-449h258q68 0 114 19t74 49.5t40 68.5t12 76q0 52 -16.5 95.5t-47.5 74.5t-75.5 48.5t-100.5 17.5h-258z" />
    <glyph glyph-name="afii10045" unicode="&#x42b;" horiz-adv-x="1665" 
d="M1507 1397v-1397h-200v1397h200zM580 809q121 0 211 -33t149.5 -88.5t89 -129.5t29.5 -157t-31 -156t-91 -127.5t-148.5 -86t-202.5 -31.5h-432v1397h200v-588h226zM354 629v-449h258q69 0 115 19t73.5 49.5t39.5 68.5t12 76q0 52 -16.5 95.5t-47.5 74.5t-75.5 48.5
t-100.5 17.5h-258z" />
    <glyph glyph-name="afii10046" unicode="&#x42c;" horiz-adv-x="1114" 
d="M580 809q121 0 211 -33t149.5 -88.5t89 -129.5t29.5 -157t-31 -156t-91 -127.5t-148.5 -86t-202.5 -31.5h-432v1397h200v-588h226zM354 629v-449h258q69 0 115 19t73.5 49.5t39.5 68.5t12 76q0 52 -16.5 95.5t-47.5 74.5t-75.5 48.5t-100.5 17.5h-258z" />
    <glyph glyph-name="afii10047" unicode="&#x42d;" horiz-adv-x="1450" 
d="M422 795h719q-17 96 -65 176t-120 138t-164.5 90t-199.5 32q-121 0 -237 -35t-244 -111v215q71 30 134.5 51.5t122 36t113.5 21t109 6.5q167 0 307.5 -55t242.5 -153.5t159 -233.5t57 -295q0 -73 -19.5 -153t-59.5 -157.5t-101.5 -147.5t-145 -123t-190.5 -84t-238 -31
q-81 0 -151.5 9t-132 25t-116.5 38.5t-106 49.5v224q120 -78 244 -120t244 -42q114 0 210.5 32.5t169.5 91t119 141.5t60 183h-721v181z" />
    <glyph glyph-name="afii10048" unicode="&#x42e;" horiz-adv-x="2159" 
d="M354 0h-200v1397h200v-615h217q15 132 74 247t155.5 201t227 135.5t287.5 49.5q173 0 312 -57.5t236.5 -155.5t150 -228t52.5 -276q0 -141 -51.5 -270.5t-148.5 -228.5t-237.5 -158t-317.5 -59q-157 0 -285.5 49.5t-223.5 134t-153.5 197t-75.5 239.5h-219v-602zM772 698
q0 -114 41 -211.5t114 -169t172 -111.5t216 -40t217 40t173 111.5t114 169t41 211.5q0 116 -41 213.5t-114 168.5t-173 111t-217 40t-216 -40t-172 -111t-114 -168.5t-41 -213.5z" />
    <glyph glyph-name="afii10049" unicode="&#x42f;" horiz-adv-x="1237" 
d="M199 311q63 97 126.5 175t129.5 126q-53 24 -104.5 54.5t-92 75t-65.5 106.5t-25 149q0 101 37 176t102.5 125t155.5 74.5t196 24.5h420v-1397h-200v573h-56q-62 0 -114.5 -14t-101 -48t-97 -92t-102.5 -147l-168 -272h-240zM879 745v480h-209q-147 0 -221 -62.5
t-74 -169.5q0 -43 17.5 -87.5t54.5 -80t94.5 -58t138.5 -22.5h199z" />
    <glyph glyph-name="afii10065" unicode="&#x430;" horiz-adv-x="874" 
d="M528 555v49q0 87 -41 124.5t-125 37.5q-75 0 -149.5 -36.5t-140.5 -115.5v199q107 125 305 125q70 0 131 -18t106 -55t71 -94.5t26 -135.5v-473q0 -26 8.5 -36.5t25.5 -10.5q14 0 40 13t57 36v-111q-31 -21 -54.5 -34.5t-43.5 -21.5t-38.5 -11.5t-39.5 -3.5
q-60 0 -93.5 21.5t-46.5 72.5q-60 -48 -122 -71t-125 -23q-51 0 -92.5 18.5t-71.5 49.5t-46 71.5t-16 85.5q0 63 23 107t64 76.5t99 57.5t128 50zM528 455q-58 -20 -110.5 -41t-92.5 -46t-63.5 -56t-23.5 -72q0 -28 10 -52t27 -41t41.5 -26.5t52.5 -9.5q43 0 82.5 20
t76.5 55v269z" />
    <glyph glyph-name="afii10066" unicode="&#x431;" horiz-adv-x="1090" 
d="M770 1249q-124 -12 -212 -45.5t-146 -87.5t-89.5 -128.5t-43.5 -168.5q52 57 122.5 88t149.5 31q108 0 194.5 -35t146.5 -97.5t92 -148.5t32 -188q0 -109 -33 -199t-95 -154t-150 -99t-199 -35q-106 0 -192 37.5t-146.5 106t-93.5 164.5t-33 214q0 224 36 386t118 271
t214.5 169t325.5 79l207 21l-17 -162zM541 774q-64 0 -116 -23t-89 -63.5t-56.5 -96.5t-19.5 -122q0 -73 18.5 -133t53.5 -102.5t87 -65.5t118 -23q72 0 126.5 22.5t91.5 64t55.5 101t18.5 134.5q0 67 -19.5 123t-56.5 97t-90.5 64t-121.5 23z" />
    <glyph glyph-name="afii10067" unicode="&#x432;" horiz-adv-x="897" 
d="M125 0v920h348q75 0 134.5 -17.5t101 -50t64 -77.5t22.5 -99q0 -40 -12 -73.5t-31 -59.5t-43.5 -45t-49.5 -31q31 -14 59.5 -31.5t50.5 -42.5t35 -58.5t13 -78.5q0 -48 -16.5 -94t-53.5 -82t-96.5 -58t-146.5 -22h-379zM307 756v-236h137q76 0 120 29.5t44 103.5
q0 28 -15 47.5t-39 32t-53 18t-57 5.5h-137zM307 399v-235h166q34 0 63 6.5t50 21t33 37t12 54.5q0 30 -16 51.5t-44.5 36t-67 21.5t-83.5 7h-113z" />
    <glyph glyph-name="afii10068" unicode="&#x433;" horiz-adv-x="741" 
d="M315 756v-756h-182v920h586v-164h-404z" />
    <glyph glyph-name="afii10069" unicode="&#x434;" horiz-adv-x="1014" 
d="M993 -207h-180v207h-612v-207h-181v371h76l373 774h102l347 -774h75v-371zM727 164l-219 483l-223 -483h442z" />
    <glyph glyph-name="afii10070" unicode="&#x435;" horiz-adv-x="981" 
d="M266 432q44 -276 309 -276q85 0 163 29t159 81v-176q-42 -28 -82.5 -48t-84 -33.5t-92.5 -20t-108 -6.5q-107 0 -190 40.5t-140 108.5t-86.5 156.5t-29.5 183.5q0 105 31.5 191t88.5 147.5t136 95t174 33.5q92 0 165.5 -31.5t125.5 -94.5t80 -158t28 -222h-647zM733 553
q-4 105 -61 166t-154 61q-106 0 -167.5 -59t-80.5 -168h463z" />
    <glyph glyph-name="afii10072" unicode="&#x436;" horiz-adv-x="1333" 
d="M563 406q-60 0 -112 -35t-95 -121l-125 -250h-200l139 260q28 51 53 88t50.5 62.5t53.5 42t62 26.5q-24 9 -44 19t-38 24.5t-35 35.5t-34 52l-48 84q-15 28 -33 45t-51 17h-40v164h38q40 0 71 -6.5t57 -22.5t48.5 -43.5t45.5 -69.5l55 -102q34 -63 77 -95t103 -32h14v371
h183v-371h14q60 0 103 32t77 95l56 102q23 42 45.5 69.5t48 43.5t56.5 22.5t71 6.5h39v-164h-41q-32 0 -50.5 -17t-33.5 -45l-47 -84q-17 -31 -34 -52t-35 -35.5t-38.5 -24.5t-44.5 -19q34 -10 62 -26t54 -42t51 -63t52 -88l140 -260h-201l-125 250q-43 86 -95 121t-112 35
h-12v-406h-183v406h-12z" />
    <glyph glyph-name="afii10073" unicode="&#x437;" horiz-adv-x="799" 
d="M242 406v141q78 0 135.5 4.5t95.5 18t57 37.5t19 63q0 51 -50.5 77.5t-144.5 26.5q-85 0 -158 -24.5t-124 -55.5v156q24 18 61.5 34t79.5 28t84.5 19t77.5 7q73 0 138 -15.5t114 -45.5t77.5 -74.5t28.5 -102.5q0 -81 -49 -138t-133 -73q38 -8 74 -27.5t65 -49.5t46.5 -69
t17.5 -87q0 -81 -35 -134t-91.5 -84.5t-128 -44.5t-143.5 -13q-27 0 -71 4.5t-90 15t-87.5 27t-62.5 39.5v176q28 -22 64.5 -40t74.5 -31t75.5 -20.5t66.5 -7.5q115 0 178 33t63 103q0 35 -19 59t-50.5 39t-71 22t-80.5 7h-104z" />
    <glyph glyph-name="afii10074" unicode="&#x438;" horiz-adv-x="1075" 
d="M766 590l-530 -608h-103v938h182v-627l535 627h98v-920h-182v590z" />
    <glyph glyph-name="afii10075" unicode="&#x439;" horiz-adv-x="1075" 
d="M766 590l-530 -608h-103v938h182v-627l535 627h98v-920h-182v590zM393 1317q13 -61 56 -96q34 -31 102 -31q60 0 95 30.5t50 96.5h140q-23 -129 -97.5 -196.5t-189.5 -67.5q-120 0 -195 67.5t-98 196.5h137z" />
    <glyph glyph-name="afii10076" unicode="&#x43a;" horiz-adv-x="893" 
d="M332 549q60 0 103 32t77 95l55 102q23 42 45.5 69.5t48 43.5t56.5 22.5t71 6.5h39v-164h-41q-32 0 -50 -17t-34 -45l-47 -84q-17 -31 -34 -52t-35 -35.5t-38 -24.5t-44 -19q34 -10 62 -26.5t53.5 -42t50.5 -62.5t53 -88l139 -260h-200l-125 250q-44 86 -99 121t-108 35
h-23v-406h-182v920h182v-371h25z" />
    <glyph glyph-name="afii10077" unicode="&#x43b;" horiz-adv-x="897" 
d="M430 938h66l395 -938h-195l-239 606l-250 -606h-201z" />
    <glyph glyph-name="afii10078" unicode="&#x43c;" horiz-adv-x="1229" 
d="M338 920l285 -568l270 568h184l66 -920h-172l-58 627l-290 -627l-312 633l-47 -633h-172l62 920h184z" />
    <glyph glyph-name="afii10079" unicode="&#x43d;" horiz-adv-x="1075" 
d="M948 920v-920h-182v393h-451v-393h-182v920h182v-363h451v363h182z" />
    <glyph glyph-name="afii10080" unicode="&#x43e;" horiz-adv-x="1130" 
d="M559 938q108 0 199.5 -35t158 -97.5t103.5 -148.5t37 -188q0 -109 -36.5 -199t-102 -154t-157 -99t-202.5 -35q-106 0 -195 36.5t-153.5 101t-100.5 154t-36 195.5q0 99 37 184.5t102.5 149t154 99.5t191.5 36zM557 774q-64 0 -118.5 -23t-94.5 -63.5t-62 -96.5t-22 -122
q0 -73 21.5 -133t61 -102.5t94 -65.5t120.5 -23q72 0 130 22.5t98.5 64t62.5 101t22 134.5q0 67 -23.5 123t-65 97t-99 64t-125.5 23z" />
    <glyph glyph-name="afii10081" unicode="&#x43f;" horiz-adv-x="1075" 
d="M948 920v-920h-182v756h-451v-756h-182v920h815z" />
    <glyph glyph-name="afii10082" unicode="&#x440;" horiz-adv-x="1040" 
d="M449 920q251 0 384.5 -120t133.5 -347q0 -104 -34.5 -190.5t-97 -149t-148 -97t-187.5 -34.5q-45 0 -88 9.5t-97 31.5v-494h-182v1391h316zM315 756v-570q85 -41 172 -41q64 0 117.5 23.5t92.5 64.5t61 98t22 124q0 71 -23 127t-63.5 94.5t-95 59t-117.5 20.5h-166z" />
    <glyph glyph-name="afii10083" unicode="&#x441;" horiz-adv-x="897" 
d="M825 35q-23 -11 -55 -20.5t-69 -17t-75.5 -11.5t-74.5 -4q-103 0 -189 34t-147.5 95t-96 145.5t-34.5 185.5q0 114 32 205.5t91 156t143 99.5t189 35q40 0 74 -4.5t65.5 -12.5t62.5 -20t64 -27v-194q-39 26 -72.5 43.5t-64 28t-59 14.5t-58.5 4q-62 0 -114 -22.5
t-89 -63.5t-57.5 -98t-20.5 -127q0 -72 22 -128.5t63 -95.5t98.5 -60t128.5 -21q58 0 116 15t127 46v-180z" />
    <glyph glyph-name="afii10084" unicode="&#x442;" horiz-adv-x="905" 
d="M543 756v-756h-183v756h-323v164h829v-164h-323z" />
    <glyph glyph-name="afii10085" unicode="&#x443;" horiz-adv-x="897" 
d="M897 920l-651 -1391h-203l313 668l-356 723h207l248 -519l237 519h205z" />
    <glyph glyph-name="afii10086" unicode="&#x444;" horiz-adv-x="1337" 
d="M578 0q-105 0 -196.5 36t-160 99.5t-108 149t-39.5 184.5t40 182t109 142.5t160.5 93t194.5 33.5v477h182v-477q103 0 194.5 -33.5t160.5 -93t109 -142.5t40 -182t-39.5 -184.5t-108 -149t-160.5 -99.5t-196 -36v-473h-182v473zM760 158q78 0 137 25t99 67.5t60.5 98.5
t20.5 118q0 55 -20.5 108t-60.5 94.5t-99 67t-137 25.5v-604zM578 762q-78 0 -137 -25.5t-99.5 -67t-61 -94.5t-20.5 -108q0 -62 20.5 -118t61 -98.5t99.5 -67.5t137 -25v604z" />
    <glyph glyph-name="afii10087" unicode="&#x445;" 
d="M997 920l-379 -453l406 -467h-233l-289 330l-273 -330h-229l387 467l-387 453h229l273 -316l262 316h233z" />
    <glyph glyph-name="afii10088" unicode="&#x446;" horiz-adv-x="1122" 
d="M133 0v920h182v-756h451v756h182v-756h164v-371h-180v207h-799z" />
    <glyph glyph-name="afii10089" unicode="&#x447;" horiz-adv-x="971" 
d="M844 920v-920h-182v408q-19 -17 -49.5 -32.5t-66 -27t-73 -18t-72.5 -6.5q-175 0 -258.5 88.5t-83.5 277.5v230h183v-232q0 -64 11.5 -103.5t35.5 -61.5t60.5 -29t86.5 -7q33 0 66.5 5.5t64 16t55.5 25.5t40 33v353h182z" />
    <glyph glyph-name="afii10090" unicode="&#x448;" horiz-adv-x="1489" 
d="M1362 920v-920h-1229v920h182v-756h340v756h183v-756h342v756h182z" />
    <glyph glyph-name="afii10091" unicode="&#x449;" horiz-adv-x="1536" 
d="M133 0v920h182v-756h340v756h183v-756h342v756h182v-756h164v-371h-180v207h-1213z" />
    <glyph glyph-name="afii10092" unicode="&#x44a;" horiz-adv-x="967" 
d="M190 0v756h-190v164h373v-310h211q85 0 146.5 -28t101 -71.5t58.5 -97.5t19 -106q0 -54 -19 -108.5t-58.5 -98.5t-101 -72t-146.5 -28h-394zM373 446v-282h166q87 0 137.5 35t50.5 110q0 74 -51 105.5t-137 31.5h-166z" />
    <glyph glyph-name="afii10093" unicode="&#x44b;" horiz-adv-x="1296" 
d="M1169 920v-920h-182v920h182zM133 0v920h182v-310h211q86 0 147.5 -28t101 -71.5t58.5 -97.5t19 -106q0 -54 -19 -108.5t-58.5 -98.5t-101 -72t-147.5 -28h-393zM315 446v-282h164q88 0 139.5 35t51.5 110q0 37 -13.5 63t-38 42.5t-59.5 24t-78 7.5h-166z" />
    <glyph glyph-name="afii10094" unicode="&#x44c;" horiz-adv-x="909" 
d="M133 0v920h182v-310h211q86 0 147.5 -28t101 -71.5t58.5 -97.5t19 -106q0 -54 -19 -108.5t-58.5 -98.5t-101 -72t-147.5 -28h-393zM315 446v-282h162q43 0 78.5 8.5t61 26.5t39.5 45.5t14 64.5t-14 63t-39.5 42.5t-61 24t-78.5 7.5h-162z" />
    <glyph glyph-name="afii10095" unicode="&#x44d;" horiz-adv-x="897" 
d="M260 379v164h379q-12 59 -37.5 102t-62 70.5t-82.5 41t-99 13.5q-30 0 -58.5 -4t-59 -14.5t-64 -28t-72.5 -43.5v194q33 15 64 27t63 20t66 12.5t74 4.5q104 0 188 -35t143 -99.5t91 -156t32 -205.5q0 -101 -34.5 -185.5t-96 -145.5t-147.5 -95t-189 -34q-36 0 -74.5 4
t-75 11.5t-69 17t-55.5 20.5v180q69 -31 126.5 -46t117.5 -15q59 0 111 12.5t93 40t69 70t40 102.5h-381z" />
    <glyph glyph-name="afii10096" unicode="&#x44e;" horiz-adv-x="1499" 
d="M307 0h-182v920h182v-373h152q14 84 55.5 156t104.5 124t144.5 81.5t174.5 29.5q108 0 199.5 -35t158 -97.5t103.5 -148.5t37 -188q0 -109 -36.5 -199t-102 -154t-157 -99t-202.5 -35q-95 0 -176 29t-143.5 82t-103 127t-54.5 163h-154v-383zM936 774q-64 0 -118.5 -23
t-94.5 -63.5t-62 -96.5t-22 -122q0 -73 21.5 -133t61 -102.5t94 -65.5t120.5 -23q72 0 130 22.5t98.5 64t62.5 101t22 134.5q0 67 -23.5 123t-65 97t-99 64t-125.5 23z" />
    <glyph glyph-name="afii10097" unicode="&#x44f;" horiz-adv-x="977" 
d="M168 197q38 57 80 102t96 70q-46 17 -83 40.5t-63.5 55.5t-40.5 73.5t-14 94.5q0 66 31.5 119t83 90.5t117.5 57.5t135 20h342v-920h-182v336h-52q-36 0 -69.5 -7t-64 -23.5t-59.5 -45t-56 -70.5l-121 -190h-215zM670 479v277h-160q-88 0 -134 -33.5t-46 -99.5
q0 -25 9.5 -50.5t31 -46.5t56 -34t83.5 -13h160z" />
    <glyph glyph-name="afii10071" unicode="&#x451;" horiz-adv-x="981" 
d="M266 432q44 -276 309 -276q85 0 163 29t159 81v-176q-42 -28 -82.5 -48t-84 -33.5t-92.5 -20t-108 -6.5q-107 0 -190 40.5t-140 108.5t-86.5 156.5t-29.5 183.5q0 105 31.5 191t88.5 147.5t136 95t174 33.5q92 0 165.5 -31.5t125.5 -94.5t80 -158t28 -222h-647zM733 553
q-4 105 -61 166t-154 61q-106 0 -167.5 -59t-80.5 -168h463zM307 1286q40 0 67 -27t27 -67t-27 -68t-67 -28t-68 28t-28 68t28 67t68 27zM688 1286q40 0 67 -27t27 -67t-27 -68t-67 -28t-68 28t-28 68t28 67t68 27z" />
    <glyph glyph-name="afii10099" unicode="&#x452;" horiz-adv-x="1034" 
d="M614 1270v-164h-297v-307h5q52 66 124 102.5t150 36.5q68 0 125 -23t99 -70t65.5 -117t23.5 -165v-672q0 -102 -24.5 -171.5t-68.5 -111.5t-105.5 -60.5t-135.5 -18.5h-118v164h69q65 0 104.5 11.5t61 39t28.5 72t7 110.5v643q0 51 -12.5 92.5t-36 70.5t-57 45t-74.5 16
q-30 0 -57.5 -7.5t-55 -23.5t-56.5 -41.5t-61 -61.5v-659h-182v1106h-125v164h125v127h182v-127h297z" />
    <glyph glyph-name="afii10100" unicode="&#x453;" horiz-adv-x="741" 
d="M315 756v-756h-182v920h586v-164h-404zM492 1321h198l-221 -289h-109z" />
    <glyph glyph-name="afii10101" unicode="&#x454;" horiz-adv-x="897" 
d="M659 543v-164h-391q11 -57 39 -99.5t69 -70t93.5 -41.5t112.5 -14q58 0 116 15t127 46v-180q-23 -11 -55 -20.5t-69 -17t-75.5 -11.5t-74.5 -4q-103 0 -189 34t-147.5 95t-96 145.5t-34.5 185.5q0 114 32 205.5t91 156t143 99.5t189 35q40 0 74 -4.5t65.5 -12.5t62.5 -20
t64 -27v-194q-39 26 -72.5 43.5t-64 28t-59 14.5t-58.5 4q-52 0 -98.5 -13.5t-84 -41t-63 -70.5t-35.5 -102h389z" />
    <glyph glyph-name="afii10102" unicode="&#x455;" horiz-adv-x="788" 
d="M84 262q91 -63 167.5 -92t133.5 -29q28 1 52.5 8.5t43 20.5t29 32t10.5 44q0 31 -32 59t-79.5 56.5t-103.5 60t-103.5 70t-79.5 86.5t-32 110q0 59 21.5 105t61 78.5t95.5 49.5t125 17q66 0 132 -19t139 -57v-180q-78 51 -147 73.5t-120 22.5q-55 0 -88 -23.5t-33 -60.5
q0 -15 12 -32.5t39 -39.5t69.5 -49.5t103.5 -62.5q57 -38 96 -69.5t64 -61.5t36 -60.5t11 -66.5q0 -61 -23 -110.5t-63.5 -85t-96 -55t-121.5 -19.5q-42 0 -80.5 4.5t-76.5 14.5t-77.5 26t-84.5 39v196z" />
    <glyph glyph-name="afii10103" unicode="&#x456;" horiz-adv-x="449" 
d="M315 920v-920h-182v920h182zM334 1198q0 -22 -8.5 -41.5t-23.5 -34.5t-34.5 -23.5t-42.5 -8.5q-22 0 -41.5 8.5t-34.5 23.5t-23.5 34.5t-8.5 41.5q0 23 8.5 42.5t23.5 34.5t34.5 23.5t41.5 8.5q23 0 42.5 -8.5t34.5 -23.5t23.5 -34.5t8.5 -42.5z" />
    <glyph glyph-name="afii10104" unicode="&#x457;" horiz-adv-x="449" 
d="M315 920v-920h-182v920h182zM78 1208q40 0 67 -27t27 -67t-27 -68t-67 -28t-68 28t-28 68t28 67t68 27zM373 1208q40 0 67 -27t27 -67t-27 -68t-67 -28q-42 0 -69.5 28t-27.5 68t27.5 67t69.5 27z" />
    <glyph glyph-name="afii10105" unicode="&#x458;" horiz-adv-x="449" 
d="M307 920v-1041q0 -74 -11.5 -128.5t-34 -95.5t-57 -71.5t-79.5 -54.5l-137 135q60 25 98.5 74t38.5 127v1055h182zM326 1198q0 -22 -8.5 -41.5t-23.5 -34.5t-34.5 -23.5t-42.5 -8.5q-22 0 -41.5 8.5t-34.5 23.5t-23.5 34.5t-8.5 41.5q0 23 8.5 42.5t23.5 34.5t34.5 23.5
t41.5 8.5q23 0 42.5 -8.5t34.5 -23.5t23.5 -34.5t8.5 -42.5z" />
    <glyph glyph-name="afii10106" unicode="&#x459;" horiz-adv-x="1292" 
d="M10 0l422 938h68l162 -360h247q78 0 138.5 -22.5t102 -60.5t63.5 -89.5t22 -110.5q0 -61 -21 -115t-63.5 -94t-106.5 -63t-151 -23h-195l-243 606l-246 -606h-199zM870 164q85 0 132 31t47 100q0 60 -47 89.5t-132 29.5h-155l116 -250h39z" />
    <glyph glyph-name="afii10107" unicode="&#x45a;" horiz-adv-x="1526" 
d="M766 0v393h-451v-393h-182v920h182v-363h451v363h182v-363h201q78 0 137.5 -24t100 -63t61 -89t20.5 -102q0 -43 -17.5 -92t-55.5 -90.5t-98.5 -69t-147.5 -27.5h-383zM948 393v-229h156q94 0 138 27.5t44 95.5q0 60 -44 83t-138 23h-156z" />
    <glyph glyph-name="afii10108" unicode="&#x45b;" 
d="M717 1284v-164h-410v-321h4q54 66 125.5 102.5t149.5 36.5q68 0 125 -23t99 -70t65.5 -117t23.5 -165v-563h-182v569q0 51 -12.5 92.5t-36 70.5t-57 45t-74.5 16q-30 0 -57.5 -7.5t-55 -23.5t-56.5 -41.5t-61 -61.5v-659h-182v1120h-125v164h125v113h182v-113h410z" />
    <glyph glyph-name="afii10109" unicode="&#x45c;" horiz-adv-x="893" 
d="M332 549q60 0 103 32t77 95l55 102q23 42 45.5 69.5t48 43.5t56.5 22.5t71 6.5h39v-164h-41q-32 0 -50 -17t-34 -45l-47 -84q-17 -31 -34 -52t-35 -35.5t-38 -24.5t-44 -19q34 -10 62 -26.5t53.5 -42t50.5 -62.5t53 -88l139 -260h-200l-125 250q-44 86 -99 121t-108 35
h-23v-406h-182v920h182v-371h25zM522 1276h199l-221 -289h-109z" />
    <glyph glyph-name="afii10110" unicode="&#x45e;" horiz-adv-x="897" 
d="M897 920l-651 -1391h-203l313 668l-356 723h207l248 -519l237 519h205zM301 1317q13 -60 55 -96q37 -31 103 -31q60 0 95 30.5t50 96.5h139q-23 -129 -97 -196.5t-189 -67.5q-120 0 -195 67.5t-98 196.5h137z" />
    <glyph glyph-name="afii10193" unicode="&#x45f;" horiz-adv-x="1085" 
d="M465 -205v205h-332v920h182v-756h451v756h182v-920h-303v-205h-180z" />
    <glyph glyph-name="afii10146" unicode="&#x462;" horiz-adv-x="1276" 
d="M516 809h225q122 0 212 -33t149.5 -88.5t89 -129.5t29.5 -157t-31 -156t-91 -127.5t-148.5 -86t-202.5 -31.5h-433v1059h-315v168h315v170h201v-168h313v-172h-313v-248zM516 629v-449h258q68 0 114 19t74 49.5t40 68.5t12 76q0 52 -16.5 95.5t-47.5 74.5t-75.5 48.5
t-100.5 17.5h-258z" />
    <glyph glyph-name="afii10194" unicode="&#x463;" horiz-adv-x="967" 
d="M567 922h-194v-312h211q85 0 146.5 -28t101 -71.5t58.5 -97.5t19 -106q0 -54 -19 -108.5t-58.5 -98.5t-101 -72t-146.5 -28h-394v922h-190v163h190v312h181v-312h196v-163zM373 446v-282h162q43 0 78 8.5t60.5 26.5t39.5 45.5t14 64.5t-14 63t-39.5 42.5t-60.5 24
t-78 7.5h-162z" />
    <glyph glyph-name="afii10147" unicode="&#x472;" horiz-adv-x="1686" 
d="M92 698q0 145 53.5 275t151.5 228.5t236.5 156t308.5 57.5q173 0 312 -57.5t236.5 -155.5t150 -228t52.5 -276q0 -141 -51.5 -270.5t-148.5 -228.5t-237.5 -158t-317.5 -59q-114 0 -214 26.5t-182.5 74.5t-147.5 114.5t-110 146t-68.5 169.5t-23.5 185zM842 166
q117 0 215 40.5t168.5 105t109.5 144t39 156.5h-364.5h-264.5t-181 0.5t-114.5 0.5t-66 0.5t-34.5 0.5h-20.5h-23.5q12 -103 63 -186t125.5 -141.5t165.5 -89.5t183 -31zM1376 793q-11 97 -57.5 177.5t-118.5 138.5t-164 90t-194 32q-105 0 -194 -31t-158 -88t-116.5 -138
t-68.5 -181h252t231 1q94 0 188 0.5t174 0.5t140 -0.5t86 -1.5z" />
    <glyph glyph-name="afii10195" unicode="&#x473;" horiz-adv-x="1130" 
d="M559 938q108 0 199.5 -35t158 -97.5t103.5 -148.5t37 -188q0 -109 -36.5 -199t-102 -154t-157 -99t-202.5 -35q-106 0 -195 36.5t-153.5 101t-100.5 154t-36 195.5q0 99 37 184.5t102.5 149t154 99.5t191.5 36zM862 545q-12 51 -39.5 93.5t-67 72.5t-90 46.5t-108.5 16.5
q-55 0 -102.5 -17t-85 -47t-63.5 -72t-38 -93h594zM266 379q12 -54 38.5 -97t64 -73.5t85.5 -47t103 -16.5q123 0 201.5 61.5t103.5 172.5h-596z" />
    <glyph glyph-name="afii10148" unicode="&#x474;" horiz-adv-x="1251" 
d="M870 1225q32 91 94.5 141.5t165.5 50.5q54 0 84.5 -9t38.5 -11v-178q-23 14 -48.5 18t-47.5 4q-57 0 -91 -32.5t-58 -98.5l-426 -1122h-37l-545 1409h186l377 -1032z" />
    <glyph glyph-name="afii10196" unicode="&#x475;" horiz-adv-x="963" 
d="M199 920l237 -564l164 400q22 55 45.5 94t53 63t65.5 34t84 7q51 -3 79.5 -13t35.5 -13v-160q-22 14 -46.5 18.5t-44.5 4.5q-28 1 -50 -13.5t-39 -37t-30 -49t-22 -50.5l-266 -659h-59l-396 938h189z" />
    <glyph glyph-name="afii10050" unicode="&#x490;" horiz-adv-x="971" 
d="M946 1505v-288h-592v-1217h-200v1397h591v108h201z" />
    <glyph glyph-name="afii10098" unicode="&#x491;" horiz-adv-x="741" 
d="M315 756v-756h-182v920h404v86h182v-250h-404z" />
    <glyph glyph-name="uni0492" unicode="&#x492;" horiz-adv-x="971" 
d="M788 608h-434v-608h-200v608h-148v180h148v609h792v-180h-592v-429h434v-180z" />
    <glyph glyph-name="uni0493" unicode="&#x493;" horiz-adv-x="741" 
d="M602 393h-287v-393h-182v393h-115v164h115v363h586v-164h-404v-199h287v-164z" />
    <glyph glyph-name="uni0496" unicode="&#x496;" horiz-adv-x="1878" 
d="M152 1397q74 0 132 -15t105.5 -52t87 -98.5t76.5 -154.5q31 -78 61.5 -126.5t62.5 -75.5t66.5 -36.5t73.5 -9.5v568h201v-568q39 0 73.5 9.5t66.5 36.5t62.5 75.5t61.5 126.5q37 93 76.5 154.5t87 98.5t105.5 52t132 15h31v-180q-67 0 -110.5 -12.5t-73 -40t-49.5 -70.5
t-41 -105q-13 -38 -35.5 -76t-51 -71t-60.5 -59.5t-64 -41.5q43 -15 75 -33.5t60 -45.5t55 -64t60 -90l202 -328h166v-436h-200v256h-84l-252 426q-36 62 -70 107t-69 74.5t-72.5 44t-81.5 14.5v-666h-201v666q-44 0 -82 -15t-73.5 -45t-69 -75t-68.5 -105l-252 -426h-231
l315 508q56 90 115 146.5t135 86.5q-32 15 -64 41.5t-60.5 59.5t-51 71t-35.5 76q-21 62 -41.5 105t-49.5 70.5t-72.5 40t-110.5 12.5v180h31z" />
    <glyph glyph-name="uni0497" unicode="&#x497;" horiz-adv-x="1360" 
d="M1339 164v-371h-180v207h-57l-125 250q-43 86 -95 121t-112 35h-12v-406h-183v406h-12q-60 0 -112 -35t-95 -121l-125 -250h-200l139 260q28 51 53 88t50.5 62.5t53.5 42t62 26.5q-24 9 -44 19t-38 24.5t-35 35.5t-34 52l-48 84q-15 28 -33 45t-51 17h-40v164h38
q40 0 71 -6.5t57 -22.5t48.5 -43.5t45.5 -69.5l55 -102q34 -63 77 -95t103 -32h14v371h183v-371h14q60 0 103 32t77 95l56 102q23 42 45.5 69.5t48 43.5t56.5 22.5t71 6.5h39v-164h-41q-32 0 -50.5 -17t-33.5 -45l-47 -84q-17 -31 -34 -52t-35 -35.5t-38.5 -24.5t-44.5 -19
q34 -10 62 -26t54 -42t51 -63t52 -88l51 -96h125z" />
    <glyph glyph-name="uni049A" unicode="&#x49a;" horiz-adv-x="1260" 
d="M154 1397h200v-568q57 0 101.5 9.5t81 36.5t67.5 75.5t62 126.5q37 93 76.5 154.5t87 98.5t105.5 52t132 15h31v-180q-68 0 -111 -12.5t-72 -40t-49.5 -71t-42.5 -104.5q-13 -37 -34 -75t-46.5 -71t-54 -59t-57.5 -39q52 -24 89.5 -49t70 -60.5t65 -85.5t74.5 -124
l141 -246h158v-436h-201v256h-80l-217 377q-51 89 -92 145t-82.5 88t-89.5 44t-113 12v-666h-200v1397z" />
    <glyph glyph-name="uni049B" unicode="&#x49b;" horiz-adv-x="920" 
d="M899 164v-371h-180v207h-57l-125 250q-44 86 -99 121t-108 35h-23v-406h-182v920h182v-371h25q60 0 103 32t77 95l55 102q23 42 45.5 69.5t48 43.5t56.5 22.5t71 6.5h39v-164h-41q-32 0 -50 -17t-34 -45l-47 -84q-17 -31 -34 -52t-35 -35.5t-38 -24.5t-44 -19
q34 -10 62 -26.5t53.5 -42t50.5 -62.5t53 -88l51 -96h125z" />
    <glyph glyph-name="uni04A2" unicode="&#x4a2;" horiz-adv-x="1532" 
d="M1137 0v608h-783v-608h-200v1397h200v-609h783v609h200v-1217h185v-436h-201v256h-184z" />
    <glyph glyph-name="uni04A3" unicode="&#x4a3;" horiz-adv-x="1122" 
d="M948 920v-756h164v-371h-180v207h-166v393h-451v-393h-182v920h182v-363h451v363h182z" />
    <glyph glyph-name="uni04AE" unicode="&#x4ae;" horiz-adv-x="1237" 
d="M995 1397h242l-518 -660v-737h-201v739l-518 658h242l374 -482z" />
    <glyph glyph-name="uni04AF" unicode="&#x4af;" horiz-adv-x="897" 
d="M545 123v-594h-183v586l-356 805h199l248 -566l241 566h195z" />
    <glyph glyph-name="uni04B0" unicode="&#x4b0;" horiz-adv-x="1237" 
d="M1128 516h-409v-516h-201v516h-409v180h409v43l-518 658h242l374 -482l379 482h242l-518 -660v-41h409v-180z" />
    <glyph glyph-name="uni04B1" unicode="&#x4b1;" horiz-adv-x="897" 
d="M545 184v-20h297v-164h-297v-471h-183v471h-296v164h296v12l-356 744h199l248 -525l241 525h195z" />
    <glyph glyph-name="uni04B2" unicode="&#x4b2;" horiz-adv-x="1450" 
d="M1204 0l-475 578l-481 -578h-244l602 723l-559 674h244l438 -533l436 533h242l-557 -674l446 -543h154v-436h-201v256h-45z" />
    <glyph glyph-name="uni04B3" unicode="&#x4b3;" 
d="M997 920l-379 -453l263 -303h133v-371h-180v207h-43l-289 330l-273 -330h-229l387 467l-387 453h229l273 -316l262 316h233z" />
    <glyph glyph-name="uni04B6" unicode="&#x4b6;" horiz-adv-x="1311" 
d="M915 584q-21 -12 -55 -24.5t-75 -23t-84.5 -17.5t-84.5 -7q-154 0 -257 33t-164.5 99.5t-87 167t-25.5 235.5v350h201v-369q0 -106 20.5 -172t61 -102.5t102 -49t143.5 -12.5q85 0 164.5 17t140.5 45v643h201v-1217h184v-436h-200v256h-185v584z" />
    <glyph glyph-name="uni04B7" unicode="&#x4b7;" horiz-adv-x="1018" 
d="M1008 164v-371h-181v207h-165v408q-19 -17 -49.5 -32.5t-66 -27t-73 -18t-72.5 -6.5q-175 0 -258.5 88.5t-83.5 277.5v230h183v-232q0 -64 11.5 -103.5t35.5 -61.5t60.5 -29t86.5 -7q33 0 66.5 5.5t64 16t55.5 25.5t40 33v353h182v-756h164z" />
    <glyph glyph-name="uni04BA" unicode="&#x4ba;" horiz-adv-x="1272" 
d="M156 0v1397h200v-531q21 12 55.5 25t75.5 23.5t84.5 17t83.5 6.5q155 0 258 -33t164.5 -99.5t87 -167t25.5 -235.5v-403h-201v422q0 107 -20.5 172.5t-61 102t-102 49t-143.5 12.5q-85 0 -164 -17t-142 -45v-696h-200z" />
    <glyph glyph-name="uni04BB" unicode="&#x4bb;" 
d="M307 799h4q54 66 125.5 102.5t149.5 36.5q68 0 125 -23t99 -70t65.5 -117t23.5 -165v-563h-182v569q0 51 -12.5 92.5t-36 70.5t-57 45t-74.5 16q-30 0 -57.5 -7.5t-55 -23.5t-56.5 -41.5t-61 -61.5v-659h-182v1397h182v-598z" />
    <glyph glyph-name="uni04C0" unicode="&#x4c0;" horiz-adv-x="512" 
d="M356 0h-200v1397h200v-1397z" />
    <glyph glyph-name="uni04CF" unicode="&#x4cf;" horiz-adv-x="449" 
d="M315 0h-182v920h182v-920z" />
    <glyph glyph-name="uni04D8" unicode="&#x4d8;" horiz-adv-x="1563" 
d="M768 -18q-172 0 -298.5 57t-209 155t-122.5 228t-40 276h1166q0 118 -41 216t-116 168.5t-179 109.5t-230 39q-118 0 -242.5 -40t-244.5 -118v219q51 27 106 49.5t116.5 39t131.5 25.5t152 9q131 0 237.5 -31t190.5 -84t145 -123t101 -147.5t59.5 -157.5t19.5 -153
q0 -160 -47.5 -295t-137.5 -233.5t-220.5 -153.5t-296.5 -55zM768 166q95 0 173 25.5t137.5 72.5t100.5 112.5t62 145.5h-917q18 -81 55 -147t93 -112.5t130 -71.5t166 -25z" />
    <glyph glyph-name="uni04D9" unicode="&#x4d9;" horiz-adv-x="981" 
d="M731 487q-43 277 -309 277q-85 0 -163 -28.5t-159 -82.5v176q42 28 82.5 48.5t84 34t92.5 20t108 6.5q108 0 191 -41t139.5 -109t86 -156t29.5 -183q0 -105 -31.5 -191t-88.5 -147.5t-136 -95t-174 -33.5q-91 0 -165 31t-126 94t-80 158t-28 222h647zM264 367
q4 -106 61 -167t154 -61q106 0 167.5 58.5t80.5 169.5h-463z" />
    <glyph glyph-name="uni04E2" unicode="&#x4e2;" horiz-adv-x="1493" 
d="M1137 1026l-887 -1044h-96v1415h200v-1063l885 1063h98v-1397h-200v1026zM1086 1556h-678v150h678v-150z" />
    <glyph glyph-name="uni04E3" unicode="&#x4e3;" horiz-adv-x="1075" 
d="M766 590l-530 -608h-103v938h182v-627l535 627h98v-920h-182v590zM877 1110h-678v150h678v-150z" />
    <glyph glyph-name="uni04E8" unicode="&#x4e8;" horiz-adv-x="1686" 
d="M92 698q0 145 53.5 275t151.5 228.5t236.5 156t308.5 57.5q173 0 312 -57.5t236.5 -155.5t150 -228t52.5 -276q0 -141 -51.5 -270.5t-148.5 -228.5t-237.5 -158t-317.5 -59q-114 0 -214 26.5t-182.5 74.5t-147.5 114.5t-110 146t-68.5 169.5t-23.5 185zM842 166
q117 0 215 41t168.5 105.5t109.5 144.5t39 157h-1069q12 -103 63 -186t125.5 -141.5t165.5 -89.5t183 -31zM1376 791q-11 97 -57.5 177.5t-118.5 139t-164 91t-194 32.5q-105 0 -194 -31t-158 -88.5t-116.5 -138.5t-68.5 -182h1071z" />
    <glyph glyph-name="uni04E9" unicode="&#x4e9;" horiz-adv-x="1130" 
d="M559 938q108 0 199.5 -35t158 -97.5t103.5 -148.5t37 -188q0 -109 -36.5 -199t-102 -154t-157 -99t-202.5 -35q-106 0 -195 36.5t-153.5 101t-100.5 154t-36 195.5q0 99 37 184.5t102.5 149t154 99.5t191.5 36zM862 545q-12 51 -39.5 93.5t-67 72.5t-90 46.5t-108.5 16.5
q-55 0 -102.5 -17t-85 -47t-63.5 -72t-38 -93h594zM266 379q12 -54 38.5 -97t64 -73.5t85.5 -47t103 -16.5q123 0 201.5 61.5t103.5 172.5h-596z" />
    <glyph glyph-name="uni04EE" unicode="&#x4ee;" horiz-adv-x="1348" 
d="M219 1397l502 -1168l412 1168h196l-520 -1397q-32 -84 -67.5 -144.5t-77.5 -98.5t-92 -56t-111 -18q-54 0 -98 13.5t-78 35.5v180q34 -35 77.5 -50.5t106.5 -15.5q21 0 47.5 10.5t50.5 30.5t42 48.5t22 64.5l-613 1397h201zM1012 1556h-678v150h678v-150z" />
    <glyph glyph-name="uni04EF" unicode="&#x4ef;" horiz-adv-x="897" 
d="M897 920l-651 -1391h-203l313 668l-356 723h207l248 -519l237 519h205zM786 1110h-678v150h678v-150z" />
    <glyph glyph-name="endash" unicode="&#x2013;" 
d="M-16 584h1058v-131h-1058v131z" />
    <glyph glyph-name="emdash" unicode="&#x2014;" horiz-adv-x="2048" 
d="M-16 584h2082v-131h-2082v131z" />
    <glyph glyph-name="quoteleft" unicode="&#x2018;" horiz-adv-x="449" 
d="M350 1415v-31q-86 -95 -86 -198q0 -13 2 -23q107 -34 107 -125q0 -50 -36.5 -84t-88.5 -34q-63 0 -100 50.5t-37 135.5q0 231 239 309z" />
    <glyph glyph-name="quoteright" unicode="&#x2019;" horiz-adv-x="449" 
d="M100 907v39q45 44 63 87t21 118q-106 34 -106 131q0 55 36.5 94t86.5 39q61 0 100 -54t39 -138q0 -112 -64 -196.5t-176 -119.5z" />
    <glyph glyph-name="quotesinglbase" unicode="&#x201a;" horiz-adv-x="449" 
d="M100 -242v37q45 43 63 86.5t21 118.5q-106 31 -106 131q0 54 36.5 93.5t86.5 39.5q61 0 100 -54t39 -138q0 -111 -64 -195t-176 -119z" />
    <glyph glyph-name="quotedblleft" unicode="&#x201c;" horiz-adv-x="874" 
d="M764 1415v-41q-36 -24 -58 -71.5t-22 -100.5q0 -26 4 -49q47 -3 75 -34.5t28 -80.5q0 -50 -34.5 -84t-86.5 -34q-65 0 -105.5 53t-40.5 137q0 67 28.5 130t76.5 102.5t135 72.5zM227 1153h9q37 0 65.5 -35t28.5 -80q0 -50 -33 -84t-82 -34q-63 0 -105 56t-42 140
q0 106 62.5 185.5t172.5 113.5v-43q-80 -64 -80 -168z" />
    <glyph glyph-name="quotedblright" unicode="&#x201d;" horiz-adv-x="874" 
d="M651 1145v26q-106 14 -106 121q0 54 33.5 88.5t85.5 34.5q64 0 103.5 -52t39.5 -138q0 -109 -63.5 -191t-172.5 -114v38q80 70 80 187zM190 1147v22q-47 5 -74.5 36t-27.5 79q0 60 33 95.5t88 35.5q63 0 102 -53.5t39 -140.5q0 -219 -239 -301v38q79 62 79 189z" />
    <glyph glyph-name="quotedblbase" unicode="&#x201e;" horiz-adv-x="918" 
d="M588 -236v37q80 90 80 199q0 10 -2 23q-49 6 -77 38t-28 82q0 54 33.5 88.5t85.5 34.5q64 0 103.5 -53.5t39.5 -140.5q0 -108 -64 -192t-171 -116zM125 -238v41q84 86 84 193q0 2 -1 8q-1 9 -1 16q-48 5 -76.5 36.5t-28.5 78.5q0 60 33 96.5t88 36.5q64 0 103 -55
t39 -145q0 -64 -26.5 -123.5t-75.5 -105t-138 -77.5z" />
    <glyph glyph-name="dagger" unicode="&#x2020;" horiz-adv-x="1004" 
d="M506 1415q96 0 96 -184q0 -104 -33 -250l-28 -133q137 53 264 53q63 0 103 -26.5t40 -67.5q0 -39 -39 -64.5t-98 -25.5q-82 0 -270 53l8 -106l10 -117l13 -152q31 -339 31 -541q0 -180 -24.5 -251.5t-80.5 -71.5q-60 0 -83.5 67.5t-23.5 239.5q0 96 24.5 419t33.5 402
l12 111q-5 -1 -25 -7q-140 -46 -237 -46q-66 0 -105 24t-39 64q0 44 38 70t104 26q134 0 264 -53l-25 125q-33 176 -33 254q0 89 27.5 138.5t75.5 49.5z" />
    <glyph glyph-name="daggerdbl" unicode="&#x2021;" horiz-adv-x="1004" 
d="M55 854q0 44 40 71t106 27q101 0 262 -51l-37 168q-23 102 -23 186q0 71 28 115.5t73 44.5t71.5 -46t26.5 -124q0 -101 -47 -287l-14 -57q173 51 270 51q59 0 97 -26t38 -66q0 -41 -39.5 -66.5t-101.5 -25.5q-106 0 -264 53q0 -70 23 -227q11 -78 11 -125q0 -24 -10 -102
l-18 -125q-6 -39 -6 -115q153 51 274 51q57 0 95 -26t38 -64q0 -43 -36 -66.5t-101 -23.5q-122 0 -270 53q61 -223 61 -352q0 -76 -29 -122t-77 -46q-42 0 -67.5 46.5t-25.5 121.5q0 123 60 352q-168 -55 -275 -55q-62 0 -97.5 24.5t-35.5 67.5q0 39 40 65.5t98 26.5
q92 0 270 -53l-10 119l-15 116q-8 82 -8 111q0 43 13 121q20 123 20 211v16l-33 -8q-179 -45 -240 -45q-59 0 -97 24.5t-38 61.5z" />
    <glyph glyph-name="bullet" unicode="&#x2022;" horiz-adv-x="725" 
d="M109 698q0 105 74.5 179.5t178.5 74.5q106 0 180 -74t74 -180q0 -105 -74.5 -179.5t-179.5 -74.5q-104 0 -178.5 75t-74.5 179z" />
    <glyph glyph-name="ellipsis" unicode="&#x2026;" horiz-adv-x="2048" 
d="M1708 227q51 0 86 -36t35 -87q0 -50 -35 -85t-86 -35q-52 0 -87.5 34.5t-35.5 85.5q0 52 35.5 87.5t87.5 35.5zM1024 227q51 0 87 -36t36 -87q0 -50 -36 -85t-87 -35t-86 35t-35 85q0 51 35 87t86 36zM340 225q51 0 87 -37t36 -88q0 -50 -35.5 -84t-87.5 -34
q-51 0 -86 34t-35 84q0 52 35.5 88.5t85.5 36.5z" />
    <glyph glyph-name="perthousand" unicode="&#x2030;" horiz-adv-x="2068" 
d="M1047 1417h153l-919 -1433h-156zM995 608q129 0 221.5 -91t92.5 -220q0 -128 -92 -217.5t-222 -89.5t-220.5 89.5t-90.5 217.5q0 129 91 220t220 91zM995 457q-66 0 -112.5 -47t-46.5 -113q0 -67 46.5 -114.5t112.5 -47.5q68 0 115 47t47 115q0 66 -47.5 113t-114.5 47z
M338 1413q129 0 220 -92t91 -221q0 -128 -91.5 -220t-219.5 -92t-219.5 92t-91.5 220q0 129 91 221t220 92zM336 1262q-67 0 -114.5 -47t-47.5 -115q0 -66 47.5 -113t114.5 -47q66 0 114 47t48 113q0 67 -47.5 114.5t-114.5 47.5zM1733 608q129 0 220 -91t91 -220
q0 -128 -90.5 -217.5t-220.5 -89.5t-221 89.5t-91 217.5q0 129 91.5 220t220.5 91zM1733 457q-67 0 -113.5 -46.5t-46.5 -113.5q0 -68 46 -115t114 -47q66 0 112.5 47.5t46.5 114.5q0 66 -46.5 113t-112.5 47z" />
    <glyph glyph-name="guilsinglleft" unicode="&#x2039;" horiz-adv-x="641" 
d="M252 461l303 -461h-180l-301 461l301 459h180z" />
    <glyph glyph-name="guilsinglright" unicode="&#x203a;" horiz-adv-x="641" 
d="M389 459l-303 461h178l303 -461l-303 -459h-178z" />
    <glyph glyph-name="fraction" unicode="&#x2044;" horiz-adv-x="405" 
d="M737 1416l-931 -1471h-138l931 1471h138z" />
    <glyph glyph-name="Euro" unicode="&#x20ac;" horiz-adv-x="1249" 
d="M426 909h594l-29 -155h-590q-2 -23 -2 -50q0 -28 2 -61h570l-29 -156h-516q91 -321 377 -321q181 0 346 137v-219q-144 -102 -352 -102q-230 0 -379 134t-199 371h-162l29 156h115q0 74 2 111h-146l27 155h141q61 235 215.5 370.5t366.5 135.5q159 0 350 -67l-39 -191
q-174 74 -317 74q-280 0 -375 -322z" />
    <glyph glyph-name="uni20B4" unicode="&#x20b4;" 
d="M627 909q38 34 62 72.5t24 87.5q0 75 -57.5 120.5t-163.5 45.5q-36 0 -75 -7t-80 -23.5t-84.5 -44.5t-88.5 -70v227q149 98 311 98q96 0 174 -23t133.5 -68t86 -110.5t30.5 -150.5q0 -45 -11 -82.5t-30 -71.5h113v-155h-277q-40 -29 -84 -57t-86 -54h447v-156h-619
q-26 -32 -41.5 -69t-15.5 -80q0 -29 13.5 -60.5t41.5 -57t71 -42t101 -16.5q42 0 91 13.5t98.5 37.5t96 57.5t83.5 73.5v-233q-88 -66 -182.5 -97.5t-208.5 -31.5q-85 0 -156.5 25t-123.5 71.5t-81.5 113t-29.5 148.5q0 84 26 147h-82v156h205q34 31 73 58.5t81 52.5h-359
v155h574z" />
    <glyph glyph-name="afii61352" unicode="&#x2116;" horiz-adv-x="2228" 
d="M1182 1133q0 54 15 102t48 84t86.5 57t130.5 21h158v-180h-121q-71 0 -100 -35.5t-29 -118.5v-1063h-172l-858 1075v-1075h-188v1397h159l871 -1098v834zM1860 903q-42 0 -79 -15.5t-64 -43t-42.5 -64.5t-15.5 -80q0 -42 15.5 -79t42.5 -64t64 -43t79 -16q43 0 80 16
t64.5 43t43.5 64t16 79q0 43 -16 80t-43.5 64.5t-64.5 43t-80 15.5zM1860 1022q69 0 129.5 -24.5t105 -67.5t70.5 -102t26 -128t-26 -128t-70.5 -101.5t-105 -67t-129.5 -24.5t-129.5 24.5t-105.5 67t-71 101.5t-26 128t26 128t71 102t105.5 67.5t129.5 24.5zM1550 246h633
v-109h-633v109z" />
    <glyph glyph-name="trademark" unicode="&#x2122;" horiz-adv-x="2048" 
d="M625 582h-136v695h-264v120h666v-120h-266v-695zM1108 582h-125v815h201l205 -651l198 651h197v-815h-125v684l-209 -684h-123l-219 695v-695z" />
    <glyph glyph-name="minus" unicode="&#x2212;" horiz-adv-x="1196" 
d="M1081 807v-168h-966v168h966z" />
    <glyph glyph-name="apple" unicode="&#xf8ff;" horiz-adv-x="1618" 
d="M836 1204q45 0 146 35t177 35q123 0 219 -66q54 -39 107 -102q-80 -70 -117 -123q-68 -94 -68 -211q0 -127 72 -229.5t162 -128.5q-39 -123 -125 -256q-133 -199 -264 -199q-53 0 -144.5 32t-154.5 32q-64 0 -147 -33t-136 -33q-155 0 -307 262t-152 516q0 236 116 383.5
t292 147.5q76 0 182.5 -31t141.5 -31zM1149 1618q0 -66 -31 -141.5t-94 -141.5q-57 -55 -113 -73q-34 -11 -104 -17q2 152 79 263.5t257 152.5q4 -14 5 -24.5t1 -18.5z" />
    <glyph glyph-name="divisionslash" horiz-adv-x="406" 
d="M-195 -55h-137l930 1470h139z" />
    <glyph glyph-name="uni2074" horiz-adv-x="662" 
d="M518 1014h92v-101h-92v-233h-139v233h-348v54l420 448h67v-401zM379 1188l-160 -174h160v174z" />
    </font>
</defs>
</svg>
